<svg width="91" height="28" fill="none" xmlns="http://www.w3.org/2000/svg"><mask id="mask0_199_87" style="mask-type:alpha" maskUnits="userSpaceOnUse" x="0" y="0" width="91" height="28"><path d="M24 26.064V0h67v6L24 26.064zM0 0h24v28H0V0z" fill="#C4C4C4"/></mask><g mask="url(#mask0_199_87)"><path d="M13.281 8.14L7.094 27H2.109l8.454-22.75h3.171l-.453 3.89zM18.421 27L12.22 8.14l-.5-3.89h3.203l8.5 22.75h-5zm-.28-8.469v3.672H6.125v-3.672h12.016zM25.25 3h4.5v20.125L29.297 27H25.25V3zm15.203 15.375v.328c0 1.26-.135 2.417-.406 3.469-.26 1.052-.667 1.963-1.219 2.734a5.847 5.847 0 01-2.062 1.782c-.813.416-1.771.625-2.875.625-1.032 0-1.927-.209-2.688-.625a5.455 5.455 0 01-1.89-1.766c-.51-.76-.922-1.651-1.235-2.672a20.33 20.33 0 01-.703-3.344v-.718c.156-1.209.39-2.323.703-3.344.313-1.021.724-1.912 1.235-2.672a5.455 5.455 0 011.89-1.766c.75-.416 1.636-.625 2.656-.625 1.115 0 2.084.214 2.907.64a5.482 5.482 0 012.062 1.782c.552.76.958 1.667 1.219 2.719.27 1.041.406 2.193.406 3.453zm-4.5.328v-.328c0-.688-.052-1.333-.156-1.938-.094-.614-.26-1.15-.5-1.609a2.828 2.828 0 00-.984-1.11c-.407-.27-.933-.405-1.579-.405-.614 0-1.135.104-1.562.312a2.9 2.9 0 00-1.063.875 3.98 3.98 0 00-.609 1.344 8.207 8.207 0 00-.25 1.687v2.047c.031.823.167 1.552.406 2.188.25.625.625 1.12 1.125 1.484.51.354 1.172.531 1.985.531.635 0 1.161-.125 1.578-.375.416-.25.74-.604.968-1.062.24-.459.407-.995.5-1.61a13.68 13.68 0 00.141-2.03zm6.578.016v-.328c0-1.24.177-2.38.532-3.422.354-1.052.87-1.964 1.546-2.735a6.931 6.931 0 012.5-1.796c.99-.438 2.125-.657 3.407-.657 1.28 0 2.422.219 3.422.656a6.901 6.901 0 012.515 1.797c.688.771 1.208 1.683 1.563 2.735.354 1.041.53 2.182.53 3.422v.328c0 1.229-.176 2.37-.53 3.422a7.973 7.973 0 01-1.563 2.734 6.932 6.932 0 01-2.5 1.797c-.99.427-2.125.64-3.406.64-1.281 0-2.422-.213-3.422-.64a7.082 7.082 0 01-2.516-1.797 8.112 8.112 0 01-1.547-2.734c-.354-1.052-.53-2.193-.53-3.422zm4.5-.328v.328c0 .708.063 1.37.188 1.984.125.615.323 1.156.593 1.625.282.459.646.818 1.094 1.078.448.26.995.39 1.64.39.626 0 1.162-.13 1.61-.39.448-.26.808-.62 1.078-1.078a5.33 5.33 0 00.594-1.625 9.214 9.214 0 00.203-1.984v-.328a8.81 8.81 0 00-.203-1.938 5.116 5.116 0 00-.61-1.625 3.026 3.026 0 00-1.077-1.125c-.448-.27-.99-.406-1.625-.406-.636 0-1.177.135-1.625.406a3.193 3.193 0 00-1.078 1.125 5.363 5.363 0 00-.594 1.625 9.554 9.554 0 00-.188 1.938zm24.282 4.562v-12.86h4.5V27h-4.235l-.266-4.047zm.5-3.469l1.328-.03c0 1.124-.13 2.171-.391 3.14-.26.958-.651 1.791-1.172 2.5a5.476 5.476 0 01-1.969 1.64c-.791.386-1.724.578-2.796.578a7.277 7.277 0 01-2.282-.343 4.645 4.645 0 01-1.781-1.11c-.49-.51-.875-1.161-1.156-1.953-.271-.802-.407-1.765-.407-2.89V10.094h4.5v10.953c0 .5.058.922.172 1.265.125.344.297.625.516.844.219.219.474.375.766.469.302.094.635.14 1 .14.927 0 1.656-.187 2.187-.562a2.967 2.967 0 001.14-1.531c.23-.656.344-1.386.344-2.188zm15.718-9.39v3.187h-9.844v-3.187h9.844zm-7.406-4.172h4.5v15.984c0 .49.063.865.188 1.125.135.26.333.443.593.547.26.094.589.14.985.14.28 0 .53-.01.75-.03.229-.032.421-.063.578-.094l.015 3.312a8.453 8.453 0 01-1.25.297c-.447.073-.942.11-1.484.11-.99 0-1.854-.162-2.594-.485a3.573 3.573 0 01-1.687-1.594c-.396-.729-.594-1.687-.594-2.875V5.922z" fill="#000"/></g></svg>