<svg width="67" height="23" fill="none" xmlns="http://www.w3.org/2000/svg"><mask id="mask0_199_84" style="mask-type:alpha" maskUnits="userSpaceOnUse" x="0" y="0" width="67" height="23"><path d="M67 .381v22.62H0v-2.54L67 .381z" fill="#C4C4C4"/></mask><g mask="url(#mask0_199_84)"><path d="M-10.719 3.14L-16.906 22h-4.985l8.453-22.75h3.172l-.453 3.89zM-5.579 22L-11.78 3.14l-.5-3.89h3.203L-.578 22h-5zm-.28-8.469v3.672h-12.016v-3.672h12.016zM1.25-2h4.5v20.125L5.297 22H1.25V-2zm15.203 15.375v.328c0 1.26-.135 2.417-.406 3.469-.26 1.052-.667 1.963-1.219 2.734a5.847 5.847 0 01-2.062 1.782c-.813.416-1.771.625-2.875.625-1.032 0-1.927-.209-2.688-.625a5.455 5.455 0 01-1.89-1.766c-.51-.76-.922-1.651-1.235-2.672a20.335 20.335 0 01-.703-3.344v-.719c.156-1.208.39-2.322.703-3.343.313-1.021.724-1.912 1.234-2.672a5.454 5.454 0 011.891-1.766c.75-.416 1.636-.625 2.656-.625 1.115 0 2.084.214 2.907.64a5.482 5.482 0 012.062 1.782c.552.76.959 1.667 1.219 2.719.27 1.041.406 2.193.406 3.453zm-4.5.328v-.328c0-.688-.052-1.333-.156-1.938-.094-.614-.26-1.15-.5-1.609a2.828 2.828 0 00-.985-1.11c-.406-.27-.932-.405-1.578-.405-.614 0-1.135.104-1.562.312a2.9 2.9 0 00-1.063.875 3.99 3.99 0 00-.609 1.344 8.209 8.209 0 00-.25 1.687v2.047c.031.823.167 1.552.406 2.188.25.625.625 1.12 1.125 1.484.51.354 1.172.531 1.985.531.635 0 1.161-.125 1.578-.375.416-.25.74-.604.969-1.062.24-.459.406-.995.5-1.61.093-.625.14-1.302.14-2.03zm6.578.016v-.328c0-1.24.177-2.38.532-3.422.354-1.052.87-1.964 1.546-2.735a6.931 6.931 0 012.5-1.796c.99-.438 2.125-.657 3.407-.657 1.28 0 2.422.219 3.422.657a6.902 6.902 0 012.515 1.796c.688.771 1.208 1.683 1.563 2.735.354 1.041.53 2.182.53 3.422v.328c0 1.229-.176 2.37-.53 3.422a7.973 7.973 0 01-1.563 2.734 6.932 6.932 0 01-2.5 1.797c-.99.427-2.125.64-3.406.64-1.281 0-2.422-.213-3.422-.64a7.082 7.082 0 01-2.516-1.797 8.112 8.112 0 01-1.547-2.734c-.354-1.052-.53-2.193-.53-3.422zm4.5-.328v.328c0 .708.063 1.37.188 1.984.125.615.323 1.156.593 1.625.282.459.646.818 1.094 1.078.448.26.995.39 1.64.39.626 0 1.162-.13 1.61-.39.448-.26.808-.62 1.078-1.078a5.33 5.33 0 00.594-1.625 9.214 9.214 0 00.203-1.984v-.328a8.81 8.81 0 00-.203-1.938 5.115 5.115 0 00-.61-1.625 3.026 3.026 0 00-1.077-1.125c-.448-.27-.99-.406-1.625-.406-.636 0-1.177.135-1.625.406a3.193 3.193 0 00-1.078 1.125 5.363 5.363 0 00-.594 1.625 9.554 9.554 0 00-.188 1.938zm24.282 4.562V5.093h4.5V22h-4.235l-.266-4.047zm.5-3.469l1.328-.03c0 1.124-.13 2.171-.391 3.14-.26.958-.651 1.791-1.172 2.5a5.476 5.476 0 01-1.969 1.64c-.791.386-1.724.578-2.797.578a7.277 7.277 0 01-2.28-.343 4.645 4.645 0 01-1.782-1.11c-.49-.51-.875-1.161-1.156-1.953-.271-.802-.407-1.765-.407-2.89V5.094h4.5v10.953c0 .5.058.922.172 1.265.125.344.297.625.516.844.219.219.474.375.766.469.302.094.635.14 1 .14.927 0 1.656-.187 2.187-.562a2.967 2.967 0 001.14-1.531c.23-.656.344-1.386.344-2.188zm15.718-9.39V8.28h-9.843V5.094h9.843zM56.125.922h4.5v15.984c0 .49.063.865.188 1.125.135.26.333.443.593.547.26.094.589.14.985.14.28 0 .53-.01.75-.03.229-.032.422-.063.578-.094l.015 3.312a8.453 8.453 0 01-1.25.297c-.448.073-.942.11-1.484.11-.99 0-1.854-.162-2.594-.485a3.573 3.573 0 01-1.687-1.594c-.396-.729-.594-1.687-.594-2.875V.922z" fill="#000"/></g></svg>