<svg width="94" height="22" fill="none" xmlns="http://www.w3.org/2000/svg"><mask id="mask0_199_93" style="mask-type:alpha" maskUnits="userSpaceOnUse" x="0" y="0" width="94" height="22"><path d="M94 .935v20.748H0v-3.8L94 .935z" fill="#C4C4C4"/></mask><g mask="url(#mask0_199_93)"><path d="M-7.781 13.136h4.672c-.094 1.531-.516 2.89-1.266 4.078-.74 1.187-1.776 2.114-3.11 2.781-1.322.667-2.916 1-4.78 1-1.459 0-2.766-.25-3.922-.75a8.345 8.345 0 01-2.97-2.187c-.812-.948-1.431-2.094-1.859-3.438-.427-1.344-.64-2.849-.64-4.515v-1.58c0-1.666.218-3.172.656-4.515.448-1.354 1.083-2.505 1.906-3.453a8.496 8.496 0 012.985-2.188c1.156-.51 2.448-.766 3.875-.766 1.896 0 3.494.344 4.796 1.032C-6.125-.677-5.108.27-4.39 1.479c.73 1.209 1.167 2.584 1.313 4.125h-4.688c-.052-.916-.234-1.692-.546-2.328a3.103 3.103 0 00-1.422-1.453c-.625-.333-1.459-.5-2.5-.5-.782 0-1.464.146-2.047.438-.584.291-1.073.734-1.469 1.328-.396.594-.693 1.344-.89 2.25-.188.896-.282 1.948-.282 3.156v1.61c0 1.177.089 2.213.266 3.109.177.885.448 1.635.812 2.25a3.783 3.783 0 001.438 1.375c.594.302 1.307.453 2.14.453.98 0 1.787-.156 2.422-.469a3.237 3.237 0 001.453-1.39c.344-.615.547-1.38.61-2.297zm6.75-.735v-.328c0-1.24.177-2.38.531-3.422.354-1.052.87-1.963 1.547-2.734a6.931 6.931 0 012.5-1.797c.99-.437 2.125-.656 3.406-.656 1.281 0 2.422.219 3.422.656a6.902 6.902 0 012.516 1.797c.687.77 1.208 1.682 1.562 2.734.354 1.042.531 2.183.531 3.422v.328c0 1.23-.177 2.37-.53 3.422a7.973 7.973 0 01-1.563 2.735 6.931 6.931 0 01-2.5 1.797c-.99.427-2.125.64-3.407.64-1.28 0-2.421-.213-3.421-.64a7.08 7.08 0 01-2.516-1.797A8.112 8.112 0 01-.5 15.823c-.354-1.052-.531-2.193-.531-3.422zm4.5-.328v.328c0 .709.062 1.37.187 1.985.125.614.323 1.156.594 1.625.281.458.646.817 1.094 1.078.448.26.995.39 1.64.39.625 0 1.162-.13 1.61-.39.448-.26.807-.62 1.078-1.078.27-.469.469-1.01.594-1.625a9.213 9.213 0 00.203-1.985v-.328c0-.687-.068-1.333-.203-1.937a5.114 5.114 0 00-.61-1.625c-.27-.48-.63-.854-1.078-1.125-.448-.271-.99-.407-1.625-.407s-1.177.136-1.625.407c-.437.27-.797.646-1.078 1.125a5.363 5.363 0 00-.594 1.625 9.554 9.554 0 00-.187 1.937zm18.687-4.687v13.297h-4.5V3.776h4.219l.281 3.61zm-.656 4.25h-1.219c0-1.25.162-2.375.485-3.375.323-1.01.776-1.87 1.359-2.578a5.84 5.84 0 012.078-1.641c.813-.385 1.719-.578 2.719-.578.791 0 1.515.114 2.172.344a4.154 4.154 0 011.687 1.093c.48.5.844 1.162 1.094 1.985.26.823.39 1.828.39 3.015v10.782h-4.53V9.886c0-.75-.105-1.334-.313-1.75a1.755 1.755 0 00-.922-.875c-.396-.177-.885-.266-1.469-.266-.604 0-1.13.12-1.578.36a3.14 3.14 0 00-1.094 1 4.717 4.717 0 00-.64 1.468 7.199 7.199 0 00-.219 1.813zm22.469-7.86v3.188h-9.844V3.776h9.844zM36.562-.396h4.5V15.59c0 .49.063.864.188 1.125.135.26.333.443.594.547.26.094.588.14.984.14.281 0 .531-.01.75-.03.23-.032.422-.063.578-.095l.016 3.313a8.453 8.453 0 01-1.25.297c-.448.073-.943.11-1.484.11-.99 0-1.855-.162-2.594-.485a3.573 3.573 0 01-1.688-1.594c-.396-.73-.593-1.688-.593-2.875V-.396zM55.657 16.87V9.34c0-.542-.088-1.005-.265-1.39a1.977 1.977 0 00-.828-.923c-.365-.218-.839-.328-1.422-.328-.5 0-.933.089-1.297.266a1.877 1.877 0 00-.844.734c-.198.313-.297.683-.297 1.11h-4.5c0-.72.167-1.401.5-2.047.333-.646.818-1.214 1.453-1.703.636-.5 1.39-.891 2.266-1.172.885-.282 1.875-.422 2.969-.422 1.312 0 2.479.219 3.5.656 1.02.438 1.823 1.094 2.406 1.969.594.875.89 1.969.89 3.281v7.235c0 .927.058 1.687.172 2.28.115.584.282 1.095.5 1.532v.266h-4.547c-.218-.459-.385-1.032-.5-1.72a14.161 14.161 0 01-.156-2.093zm.594-6.484l.031 2.547h-2.515c-.594 0-1.11.067-1.547.203-.438.135-.797.328-1.078.578-.282.24-.49.52-.625.844a2.92 2.92 0 00-.188 1.062c0 .386.089.735.266 1.047.177.302.432.542.765.719.334.166.724.25 1.172.25.677 0 1.266-.136 1.766-.406.5-.271.885-.605 1.156-1 .281-.396.427-.771.438-1.126l1.187 1.907c-.167.427-.396.87-.687 1.328a6.2 6.2 0 01-1.078 1.297 5.56 5.56 0 01-1.579.984c-.614.25-1.343.375-2.187.375-1.073 0-2.047-.213-2.922-.64-.865-.438-1.552-1.037-2.063-1.797-.5-.771-.75-1.646-.75-2.625 0-.886.167-1.672.5-2.36a4.603 4.603 0 011.47-1.734c.656-.48 1.473-.839 2.452-1.078.98-.25 2.115-.375 3.407-.375h2.609zm14.39 7.094c.553 0 1.042-.105 1.47-.313a2.48 2.48 0 001-.906c.25-.396.38-.86.39-1.39h4.234c-.01 1.187-.328 2.244-.953 3.171-.625.917-1.463 1.64-2.515 2.172-1.053.52-2.23.781-3.532.781-1.312 0-2.458-.219-3.437-.656a6.71 6.71 0 01-2.422-1.813 7.941 7.941 0 01-1.453-2.718 11.234 11.234 0 01-.484-3.344v-.453c0-1.198.161-2.313.484-3.344.323-1.042.807-1.948 1.453-2.719a6.632 6.632 0 012.422-1.828c.969-.437 2.104-.656 3.406-.656 1.385 0 2.6.265 3.64.797a5.936 5.936 0 012.47 2.281c.604.98.911 2.14.921 3.484H73.5a3.525 3.525 0 00-.36-1.53 2.59 2.59 0 00-.968-1.095c-.417-.28-.932-.422-1.547-.422-.656 0-1.193.141-1.61.422a2.698 2.698 0 00-.968 1.125 5.602 5.602 0 00-.484 1.61 13.498 13.498 0 00-.126 1.875v.453c0 .656.042 1.286.126 1.89.083.605.24 1.141.468 1.61.24.469.568.838.985 1.11.416.27.958.405 1.625.405zM88.626 3.776v3.188h-9.844V3.776h9.844zM81.219-.396h4.5V15.59c0 .49.062.864.187 1.125.136.26.334.443.594.547.26.094.588.14.984.14.282 0 .532-.01.75-.03.23-.032.422-.063.579-.095l.015 3.313a8.453 8.453 0 01-1.25.297c-.448.073-.943.11-1.484.11-.99 0-1.854-.162-2.594-.485a3.572 3.572 0 01-1.688-1.594c-.395-.73-.593-1.688-.593-2.875V-.396z" fill="#000"/></g></svg>