<svg width="121" height="28" fill="none" xmlns="http://www.w3.org/2000/svg"><mask id="mask0_199_96" style="mask-type:alpha" maskUnits="userSpaceOnUse" x="0" y="0" width="121" height="28"><path d="M23 25.106V.16h98v6.712L23 25.106z" fill="#C4C4C4"/><path d="M0 0h24v28H0V0z" fill="#C4C4C4"/></mask><g mask="url(#mask0_199_96)"><path d="M17.219 19.453h4.672c-.094 1.531-.516 2.89-1.266 4.078-.74 1.188-1.776 2.115-3.11 2.782-1.322.666-2.916 1-4.78 1-1.459 0-2.766-.25-3.922-.75a8.346 8.346 0 01-2.97-2.188c-.812-.948-1.432-2.094-1.859-3.438-.427-1.343-.64-2.849-.64-4.515v-1.578c0-1.667.219-3.172.656-4.516.448-1.354 1.083-2.505 1.906-3.453a8.495 8.495 0 012.985-2.188c1.156-.51 2.447-.765 3.875-.765 1.896 0 3.494.344 4.796 1.031 1.313.688 2.329 1.636 3.047 2.844.73 1.208 1.167 2.583 1.313 4.125h-4.688c-.052-.917-.234-1.693-.547-2.328a3.103 3.103 0 00-1.421-1.453c-.625-.334-1.459-.5-2.5-.5-.782 0-1.464.145-2.047.437-.584.292-1.073.735-1.469 1.328-.396.594-.693 1.344-.89 2.25-.188.896-.282 1.948-.282 3.156v1.61c0 1.177.089 2.213.266 3.11.177.885.448 1.635.812 2.25a3.782 3.782 0 001.438 1.374c.594.302 1.307.453 2.14.453.98 0 1.787-.156 2.422-.468a3.237 3.237 0 001.453-1.391c.344-.615.547-1.38.61-2.297zm6.75-.734v-.328c0-1.24.177-2.38.531-3.422.354-1.052.87-1.964 1.547-2.735a6.931 6.931 0 012.5-1.796c.99-.438 2.125-.657 3.406-.657 1.281 0 2.422.219 3.422.656a6.901 6.901 0 012.516 1.797c.687.771 1.208 1.683 1.562 2.735.354 1.041.531 2.182.531 3.422v.328c0 1.229-.177 2.37-.53 3.422a7.973 7.973 0 01-1.563 2.734 6.932 6.932 0 01-2.5 1.797c-.99.427-2.125.64-3.407.64-1.28 0-2.422-.213-3.422-.64a7.082 7.082 0 01-2.515-1.797 8.112 8.112 0 01-1.547-2.734c-.354-1.052-.531-2.193-.531-3.422zm4.5-.328v.328c0 .708.062 1.37.187 1.984.125.615.323 1.156.594 1.625.281.459.646.818 1.094 1.078.448.26.994.39 1.64.39.625 0 1.162-.13 1.61-.39.448-.26.807-.62 1.078-1.078.27-.469.469-1.01.594-1.625a9.214 9.214 0 00.203-1.984v-.328a8.87 8.87 0 00-.203-1.938 5.113 5.113 0 00-.61-1.625 3.021 3.021 0 00-1.078-1.125c-.448-.27-.99-.406-1.625-.406s-1.177.135-1.625.406a3.201 3.201 0 00-1.078 1.125 5.364 5.364 0 00-.594 1.625 9.554 9.554 0 00-.187 1.938zm18.687-4.688V27h-4.5V10.094h4.219l.281 3.61zm-.656 4.25h-1.219c0-1.25.162-2.375.485-3.375.323-1.01.776-1.87 1.359-2.578a5.839 5.839 0 012.078-1.64c.813-.386 1.719-.579 2.719-.579.792 0 1.516.115 2.172.344.656.23 1.218.594 1.687 1.094.48.5.844 1.161 1.094 1.984.26.823.39 1.828.39 3.016V27h-4.53V16.203c0-.75-.105-1.333-.313-1.75a1.756 1.756 0 00-.922-.875c-.396-.177-.885-.265-1.469-.265-.604 0-1.13.12-1.578.359-.437.24-.802.573-1.094 1a4.716 4.716 0 00-.64 1.469 7.2 7.2 0 00-.219 1.812zm22.469-7.86v3.188h-9.844v-3.187h9.844zm-7.406-4.171h4.5v15.984c0 .49.062.865.187 1.125.135.26.333.443.594.547.26.094.588.14.984.14.281 0 .531-.01.75-.03a9.79 9.79 0 00.578-.094l.016 3.312a8.453 8.453 0 01-1.25.297c-.448.073-.943.11-1.484.11-.99 0-1.855-.162-2.594-.485a3.573 3.573 0 01-1.688-1.594c-.396-.729-.593-1.687-.593-2.875V5.922zm19.093 17.265v-7.53c0-.542-.088-1.006-.265-1.391a1.977 1.977 0 00-.829-.922c-.364-.219-.838-.328-1.421-.328-.5 0-.933.088-1.297.265a1.878 1.878 0 00-.844.735c-.198.312-.297.682-.297 1.109h-4.5c0-.719.167-1.401.5-2.047.334-.646.818-1.213 1.453-1.703.636-.5 1.39-.89 2.266-1.172.885-.281 1.875-.422 2.969-.422 1.312 0 2.479.219 3.5.656 1.02.438 1.822 1.094 2.406 1.97.594.874.89 1.968.89 3.28v7.235c0 .927.058 1.687.172 2.281.115.584.282 1.094.5 1.531V27h-4.546c-.22-.458-.386-1.031-.5-1.719a14.16 14.16 0 01-.157-2.093zm.594-6.484l.031 2.547h-2.515c-.594 0-1.11.068-1.547.203-.438.136-.797.328-1.078.578-.282.24-.49.521-.625.844a2.92 2.92 0 00-.188 1.063c0 .385.089.734.266 1.046.177.302.432.542.765.72.334.166.724.25 1.172.25.677 0 1.266-.136 1.766-.407.5-.271.885-.604 1.156-1 .281-.396.427-.771.438-1.125l1.187 1.906a7.71 7.71 0 01-.687 1.328c-.282.459-.641.89-1.079 1.297a5.56 5.56 0 01-1.578.985c-.614.25-1.343.375-2.187.375-1.073 0-2.047-.214-2.922-.641-.865-.438-1.552-1.037-2.063-1.797-.5-.77-.75-1.646-.75-2.625 0-.885.167-1.672.5-2.36a4.604 4.604 0 011.47-1.734c.656-.479 1.473-.838 2.452-1.078.98-.25 2.115-.375 3.407-.375h2.609zm14.39 7.094c.553 0 1.042-.104 1.47-.313.427-.218.76-.52 1-.906.25-.396.38-.86.39-1.39h4.234c-.01 1.187-.328 2.244-.953 3.171-.625.917-1.463 1.641-2.515 2.172-1.053.521-2.23.782-3.532.782-1.312 0-2.458-.22-3.437-.657a6.71 6.71 0 01-2.422-1.812 7.942 7.942 0 01-1.453-2.719 11.235 11.235 0 01-.484-3.344v-.453c0-1.198.161-2.312.484-3.344.323-1.041.807-1.947 1.453-2.718a6.632 6.632 0 012.422-1.829c.969-.437 2.104-.656 3.406-.656 1.385 0 2.6.266 3.64.797a5.93 5.93 0 012.469 2.281c.605.98.912 2.141.922 3.485H98.5a3.524 3.524 0 00-.36-1.532 2.59 2.59 0 00-.968-1.093c-.417-.281-.932-.422-1.547-.422-.656 0-1.193.14-1.61.422-.416.27-.739.646-.968 1.125a5.601 5.601 0 00-.484 1.61 13.498 13.498 0 00-.126 1.874v.453c0 .657.042 1.287.126 1.89.083.605.24 1.142.468 1.61.24.469.568.839.985 1.11.416.27.958.406 1.625.406zm17.985-13.703v3.187h-9.844v-3.187h9.844zm-7.406-4.172h4.5v15.984c0 .49.062.865.187 1.125.136.26.334.443.594.547.26.094.589.14.984.14.282 0 .532-.01.75-.03a9.65 9.65 0 00.578-.094l.016 3.312a8.438 8.438 0 01-1.25.297c-.448.073-.943.11-1.484.11-.99 0-1.854-.162-2.594-.485a3.575 3.575 0 01-1.688-1.594c-.395-.729-.593-1.687-.593-2.875V5.922z" fill="#000"/></g></svg>