<svg version="1.1" id="Слой_1" xmlns="http://www.w3.org/2000/svg" x="0" y="0" width="1224.4" height="430.4" xml:space="preserve"><style/><path d="M709.7 179.4l-64 23.3c-1 8-2.7 16-5.4 24-4.2 12.6-10.1 23.9-17.7 33.7-20.8 26.2-51.4 39.3-91.9 39.3-26.5 0-46.8-6-61-18-4-3.4-7.4-7.1-10.3-11.1l-85.7 31.2-25 128.6H409l24.4-124h1.9c8.6 13.1 21.1 23.4 37.6 30.9 16.4 7.5 37.1 11.3 62 11.3 28.1 0 53.5-4.6 76.1-13.9 22.7-9.2 41.7-22.7 57-40.2 13.1-15 23.3-32.4 30.6-52.2 7.3-19.8 11-39.7 11-59.8.1-1.1.1-2.1.1-3.1zm67-24.4l-35.9 185.4h60.3l40.4-209.1-64.8 23.7zM1154 82.8l-131.7 195.8h-1.9L961.2 87.8l-57 20.8 74.6 231.9h68.5l177.1-257.6H1154z"/></svg>