<svg version="1.1" id="Слой_1" xmlns="http://www.w3.org/2000/svg" x="0" y="0" width="1224.4" height="430.4"><path d="M312.6 169c.6-3.5 1-8.3 1-14.4 0-47.9-44.5-71.8-133.6-71.8-53 0-91.6 8.8-115.9 26.3-11.2 7.7-19.6 17.4-25.4 29.2-5.7 11.8-8.6 24.6-8.6 38.3 0 18.2 6.2 31.5 18.7 40 12.4 8.5 30.3 14 53.6 16.5l101.5 12c12.1 1.6 20.9 4 26.3 7.2 5.4 3.2 8.1 8.1 8.1 14.8 0 5.1-1.5 10.2-4.6 15.3-3 5.1-7.2 9.6-12.7 13.4-15.3 10.2-40 15.3-74.2 15.3-26.8 0-47.3-3.1-61.5-9.3C71.1 295.6 64 284.7 64 269c0-3.2.2-5.8.5-7.7H1.4C.4 267.4 0 273.6 0 280c0 28.7 12.1 48.7 36.4 59.8 24.2 11.2 58.9 16.8 103.9 16.8 28.4 0 53-2.1 73.7-6.2 20.8-4.1 38.1-10.9 52.2-20.1 12.4-8.3 21.9-19.4 28.5-33.3 6.5-13.9 9.8-28.5 9.8-43.8 0-18.8-6.2-32.5-18.4-40.9-12.3-8.5-29.4-14-51.5-16.5l-105.8-11.5c-12.1-1.3-20.8-3.3-26.1-6.2-5.3-2.9-7.9-7.3-7.9-13.4 0-3.8.9-7.7 2.6-11.5 1.8-3.8 4.2-6.9 7.4-9.1 14-10.9 37.2-16.3 69.4-16.3 26.5 0 46.1 3.1 58.9 9.3 12.8 6.2 18.2 16.8 16.3 31.8h63.2zm376.3 18.5c-.7-32.1-11.8-57-33.3-75C633.4 94 602.2 84.7 562 84.7c-46.3 0-83.9 14.8-113 44.5h-1.9l7.2-38.3h-58.9l-42.5 219 85.7-31.2c-7.4-10.5-11.1-23.2-11.1-38.4 0-11.2 2.2-22.4 6.5-33.8 4.3-11.3 10.1-21.8 17.5-31.4 10.5-13.1 23.6-23.3 39.3-30.6 15.6-7.3 33.2-11 52.7-11 54.9 0 82.3 21.1 82.3 63.2 0 4.7-.3 9.4-.8 14.1l63.9-23.3zM786.6 0L777 48.4h62.2L848.9 0h-62.3zm-16.7 91L756 163.1l64.9-23.6 9.4-48.5h-60.4zm169 0h-63.7l8.3 25.7 57-20.8-1.6-4.9z"/></svg>