<svg xmlns="http://www.w3.org/2000/svg"><symbol fill="none" xmlns="http://www.w3.org/2000/svg" viewBox="0 0 76 28" id="work1"><mask id="mask0_199_80" maskUnits="userSpaceOnUse" x="0" y="0" width="76" height="28"><path d="M28 22V0h48v5.5L28 22zM0 0h28v28H0V0z" fill="#C4C4C4"/></mask><g mask="url(#mask0_199_80)"><path d="M7.14 23.39l4.532-19.14h2.531l.578 3.188L9.953 27H7.234l-.093-3.61zM4.814 4.25l3.75 19.14L8.25 27H5.219L.172 4.25h4.64zm13.953 19.063L22.469 4.25h4.64L22.08 27h-3.032l-.281-3.688zM15.625 4.25l4.563 19.219L20.063 27h-2.72L12.485 7.422l.625-3.172h2.516zm12.531 14.469v-.328c0-1.24.177-2.38.532-3.422.354-1.052.87-1.964 1.546-2.735a6.931 6.931 0 012.5-1.796c.99-.438 2.125-.657 3.407-.657 1.28 0 2.422.219 3.422.656a6.901 6.901 0 012.515 1.797c.688.771 1.208 1.683 1.563 2.735.354 1.041.53 2.182.53 3.422v.328c0 1.229-.176 2.37-.53 3.422a7.973 7.973 0 01-1.563 2.734 6.932 6.932 0 01-2.5 1.797c-.99.427-2.125.64-3.406.64-1.281 0-2.422-.213-3.422-.64a7.082 7.082 0 01-2.516-1.797 8.112 8.112 0 01-1.547-2.734c-.354-1.052-.53-2.193-.53-3.422zm4.5-.328v.328c0 .708.063 1.37.188 1.984.125.615.323 1.156.593 1.625.282.459.646.818 1.094 1.078.448.26.995.39 1.64.39.626 0 1.162-.13 1.61-.39.448-.26.808-.62 1.078-1.078a5.33 5.33 0 00.594-1.625 9.214 9.214 0 00.203-1.984v-.328a8.81 8.81 0 00-.203-1.938 5.116 5.116 0 00-.61-1.625 3.026 3.026 0 00-1.077-1.125c-.448-.27-.99-.406-1.625-.406-.636 0-1.177.135-1.625.406a3.193 3.193 0 00-1.078 1.125 5.363 5.363 0 00-.594 1.625 9.554 9.554 0 00-.188 1.938zm18.782-4.61V27h-4.5V10.094h4.234l.266 3.687zm5.093-3.797l-.078 4.172a10.932 10.932 0 00-.797-.078 8.115 8.115 0 00-.828-.047c-.635 0-1.187.084-1.656.25-.458.156-.844.39-1.156.703a3.07 3.07 0 00-.688 1.141 5.603 5.603 0 00-.25 1.531l-.906-.281c0-1.094.11-2.099.328-3.016.219-.927.536-1.734.953-2.421.427-.688.948-1.22 1.563-1.594.614-.375 1.317-.563 2.109-.563.25 0 .505.021.766.063.26.031.474.078.64.14zm6.625-7V27h-4.5V2.984h4.5zm10.657 7.11l-7.344 8.375-3.938 3.984-1.64-3.25 3.125-3.969 4.39-5.14h5.406zM69.14 27l-5-7.813 3.109-2.718L74.328 27h-5.187z" fill="#000"/></g></symbol><symbol viewBox="0 0 48 24" id="work2"><mask id="mask0_199_77" style="mask-type:alpha" maskUnits="userSpaceOnUse" x="0" y="0" width="48" height="24"><path d="M48 .746V23.5H.5v-6.358L48 .745z" fill="#C4C4C4"/></mask><g mask="url(#mask0_199_77)"><path d="M-20.86 18.39l4.531-19.14h2.532l.578 3.188L-18.047 22h-2.72l-.093-3.61zM-23.188-.75l3.75 19.14-.313 3.61h-3.03L-27.83-.75h4.641zm13.953 19.063L-5.532-.75h4.64L-5.921 22h-3.032l-.28-3.687zM-12.375-.75l4.562 19.219L-7.938 22h-2.719l-4.86-19.578.626-3.172h2.515zM.154 13.72v-.328c0-1.24.178-2.38.532-3.422.354-1.052.87-1.964 1.547-2.734a6.932 6.932 0 012.5-1.797C5.724 5 6.859 4.78 8.14 4.78c1.281 0 2.422.22 3.422.657a6.901 6.901 0 012.516 1.797c.687.77 1.208 1.682 1.562 2.734.354 1.042.531 2.182.531 3.422v.328c0 1.23-.177 2.37-.53 3.422a7.973 7.973 0 01-1.563 2.734 6.93 6.93 0 01-2.5 1.797c-.99.427-2.125.64-3.407.64-1.28 0-2.421-.213-3.421-.64a7.08 7.08 0 01-2.516-1.797A8.113 8.113 0 01.687 17.14c-.354-1.052-.531-2.193-.531-3.422zm4.5-.328v.328c0 .708.063 1.37.188 1.984.125.615.323 1.157.594 1.625.281.459.646.818 1.094 1.079.448.26.995.39 1.64.39.625 0 1.162-.13 1.61-.39.448-.26.807-.62 1.078-1.079.27-.468.469-1.01.594-1.625a9.208 9.208 0 00.203-1.984v-.328a8.87 8.87 0 00-.203-1.938 5.115 5.115 0 00-.61-1.625 3.021 3.021 0 00-1.078-1.125c-.448-.27-.99-.406-1.625-.406s-1.177.136-1.625.406a3.201 3.201 0 00-1.078 1.125 5.362 5.362 0 00-.594 1.625 9.553 9.553 0 00-.187 1.938zm18.782-4.61v13.22h-4.5V5.093h4.234l.266 3.687zm5.094-3.796l-.078 4.171a10.866 10.866 0 00-.797-.078 8.104 8.104 0 00-.828-.047c-.636 0-1.188.084-1.657.25a2.964 2.964 0 00-1.156.704 3.071 3.071 0 00-.687 1.14 5.61 5.61 0 00-.25 1.531l-.907-.28c0-1.095.11-2.1.329-3.016.218-.927.536-1.735.953-2.422.427-.688.948-1.219 1.562-1.594.615-.375 1.318-.563 2.11-.563.25 0 .505.021.765.063.26.031.474.078.64.14zm6.625-7V22h-4.5V-2.015h4.5zm10.656 7.109l-7.344 8.375-3.937 3.984-1.64-3.25 3.124-3.968 4.39-5.141h5.407zM41.14 22l-5-7.812 3.11-2.719L46.328 22H41.14z"/></g></symbol></svg>