<svg xmlns="http://www.w3.org/2000/svg"><symbol viewBox="0 0 24 24" id="facebook"><path fill-rule="evenodd" clip-rule="evenodd" d="M11.954 24h.01-.01zm.085 0h-.004.01-.006zm-.121 0h.011-.012zm.16 0h-.007.011-.004zm-.196 0h.008-.008zm.234 0h-.006.008-.002zm.039-.001h-.003.01-.007zm-.318 0h.01-.01zm.357 0h-.007.013-.006zm-.394 0h.013-.013zm.432-.001h-.008.012-.004zm-.468 0h.012-.012zm-.044-.001h.01-.01zm.55 0h.01-.01zm-.588-.001h.014-.015zm.627 0h-.005.014-.008zm.04-.001h-.01.014-.005zm-.703 0h.015-.015zm-.033-.001h.01-.019.009zm.774 0h-.01.019-.01zm.038-.001h-.005.016-.01zm-.861 0h.016-.016zm-.035-.002h.017-.017zm.935 0h-.01.017-.007zm-.97-.002l.017.001h-.017zm1.008 0l-.013.001h.017-.004zm-1.056-.002l.018.001h-.018zm1.094.001h-.004.018-.014zm-1.128-.002h.018-.019zm1.167 0h-.009.018-.01zm-1.202-.002l.019.001h-.019zm1.24 0l-.013.001h.019-.006zm.038-.002l-.016.001h.014l.018-.002-.015.001zm-1.308 0l.014.001h-.017l-.015-.002.018.002zm1.347-.002h-.008.02-.012zm-1.4 0h.02-.019zm-.033-.003l.019.002-.012-.001h-.007zm1.471.001h-.012.02-.008zm-1.503-.003l.017.002-.016-.001-.016-.001h.015zm1.541 0l-.016.002.017-.002h.015-.016zm.038-.002h-.005.018-.013zm-1.629 0h.018-.018zm-.034-.003l.018.001h-.01l-.008-.001zm1.702 0l-.01.001.018-.001h-.008zm-1.735-.002h.016-.016zm1.773 0h-.013.016-.003zm-1.819-.004l.015.001h-.014zm1.857.001h-.004.015-.011zm.038-.003h-.007.014-.007zm-1.93 0h.015-.015zm-.034-.003h.013-.012zm2.002 0h-.009.012H13zm-2.039-.003h.004-.004zm2.077 0h.003-.003zm.038-.004h-.004.009-.005zm-2.155 0h.009-.009zm-.035-.003h.006-.006zm2.228 0h-.004.006-.002zm-2.988-.095C4.391 22.953 0 17.985 0 12 0 5.377 5.377 0 12 0s12 5.377 12 12c0 5.985-4.391 10.953-10.125 11.854V15.47h2.796l.532-3.47h-3.328V9.749c0-.949.465-1.874 1.956-1.874h1.513V4.922s-1.374-.234-2.686-.234c-2.742 0-4.533 1.66-4.533 4.668V12H7.078v3.469h3.047v8.385z"/></symbol><symbol viewBox="0 0 24 24" id="instagram"><path fill-rule="evenodd" clip-rule="evenodd" d="M12 0c6.623 0 12 5.377 12 12s-5.377 12-12 12S0 18.623 0 12 5.377 0 12 0zm0 4.5c-2.037 0-2.292.009-3.092.045-.799.037-1.344.163-1.82.349a3.677 3.677 0 00-1.33.865 3.677 3.677 0 00-.864 1.328c-.186.477-.312 1.022-.349 1.82C4.51 9.708 4.5 9.964 4.5 12s.009 2.292.045 3.092c.037.798.163 1.344.349 1.82.191.494.448.912.865 1.33.417.416.835.673 1.328.864.477.186 1.022.312 1.82.349.8.036 1.056.045 3.093.045s2.292-.009 3.092-.045c.798-.037 1.344-.163 1.82-.349a3.677 3.677 0 001.33-.865c.416-.417.673-.835.864-1.328.186-.477.312-1.023.349-1.82.036-.8.045-1.056.045-3.093s-.009-2.292-.045-3.092c-.037-.799-.163-1.344-.349-1.82a3.676 3.676 0 00-.865-1.33 3.677 3.677 0 00-1.328-.864c-.477-.186-1.023-.312-1.82-.349-.8-.036-1.056-.045-3.093-.045zm0 1.351c2.003 0 2.24.008 3.03.044.732.033 1.129.156 1.393.258.35.136.6.299.863.561.262.263.425.513.56.863.103.264.226.661.259 1.392.036.791.044 1.028.044 3.031s-.008 2.24-.044 3.03c-.033.732-.156 1.129-.258 1.393-.136.35-.299.6-.561.863a2.323 2.323 0 01-.863.56c-.264.103-.661.226-1.392.259-.791.036-1.028.044-3.031.044s-2.24-.008-3.03-.044c-.732-.033-1.129-.156-1.393-.258-.35-.136-.6-.299-.863-.561a2.322 2.322 0 01-.56-.863c-.103-.264-.226-.661-.259-1.392-.036-.791-.044-1.028-.044-3.031s.008-2.24.044-3.03c.033-.732.156-1.129.258-1.393.136-.35.299-.6.561-.863.263-.262.513-.425.863-.56.264-.103.661-.226 1.392-.259.791-.036 1.028-.044 3.031-.044zm0 2.298a3.851 3.851 0 100 7.702 3.851 3.851 0 000-7.702zm0 6.351a2.5 2.5 0 110-5 2.5 2.5 0 010 5zm4.904-6.503a.9.9 0 11-1.8 0 .9.9 0 011.8 0z"/></symbol><symbol viewBox="0 0 24 24" id="telegram"><path d="M12 0C5.371 0 0 5.371 0 12s5.371 12 12 12 12-5.371 12-12S18.629 0 12 0zm5.893 8.221l-1.969 9.28c-.145.659-.537.818-1.084.509l-3-2.212-1.447 1.394c-.16.16-.295.295-.604.295l.213-3.053 5.56-5.023c.241-.213-.054-.334-.373-.12l-6.871 4.325-2.962-.924c-.643-.203-.658-.644.136-.953l11.57-4.462c.536-.193 1.006.131.831.944z"/></symbol></svg>