<svg xmlns="http://www.w3.org/2000/svg"><symbol viewBox="0 0 76 28" id="nav-work1"><mask id="mask0_199_80" style="mask-type:alpha" maskUnits="userSpaceOnUse" x="0" y="0" width="76" height="28"><path d="M28 22V0h48v5.5L28 22zM0 0h28v28H0V0z" fill="currentColor"/></mask><g mask="url(#mask0_199_80)"><path d="M7.14 23.39l4.532-19.14h2.531l.578 3.188L9.953 27H7.234l-.093-3.61zM4.814 4.25l3.75 19.14L8.25 27H5.219L.172 4.25h4.64zm13.953 19.063L22.469 4.25h4.64L22.08 27h-3.032l-.281-3.688zM15.625 4.25l4.563 19.219L20.063 27h-2.72L12.485 7.422l.625-3.172h2.516zm12.531 14.469v-.328c0-1.24.177-2.38.532-3.422.354-1.052.87-1.964 1.546-2.735a6.931 6.931 0 012.5-1.796c.99-.438 2.125-.657 3.407-.657 1.28 0 2.422.219 3.422.656a6.901 6.901 0 012.515 1.797c.688.771 1.208 1.683 1.563 2.735.354 1.041.53 2.182.53 3.422v.328c0 1.229-.176 2.37-.53 3.422a7.973 7.973 0 01-1.563 2.734 6.932 6.932 0 01-2.5 1.797c-.99.427-2.125.64-3.406.64-1.281 0-2.422-.213-3.422-.64a7.082 7.082 0 01-2.516-1.797 8.112 8.112 0 01-1.547-2.734c-.354-1.052-.53-2.193-.53-3.422zm4.5-.328v.328c0 .708.063 1.37.188 1.984.125.615.323 1.156.593 1.625.282.459.646.818 1.094 1.078.448.26.995.39 1.64.39.626 0 1.162-.13 1.61-.39.448-.26.808-.62 1.078-1.078a5.33 5.33 0 00.594-1.625 9.214 9.214 0 00.203-1.984v-.328a8.81 8.81 0 00-.203-1.938 5.116 5.116 0 00-.61-1.625 3.026 3.026 0 00-1.077-1.125c-.448-.27-.99-.406-1.625-.406-.636 0-1.177.135-1.625.406a3.193 3.193 0 00-1.078 1.125 5.363 5.363 0 00-.594 1.625 9.554 9.554 0 00-.188 1.938zm18.782-4.61V27h-4.5V10.094h4.234l.266 3.687zm5.093-3.797l-.078 4.172a10.932 10.932 0 00-.797-.078 8.115 8.115 0 00-.828-.047c-.635 0-1.187.084-1.656.25-.458.156-.844.39-1.156.703a3.07 3.07 0 00-.688 1.141 5.603 5.603 0 00-.25 1.531l-.906-.281c0-1.094.11-2.099.328-3.016.219-.927.536-1.734.953-2.421.427-.688.948-1.22 1.563-1.594.614-.375 1.317-.563 2.109-.563.25 0 .505.021.766.063.26.031.474.078.64.14zm6.625-7V27h-4.5V2.984h4.5zm10.657 7.11l-7.344 8.375-3.938 3.984-1.64-3.25 3.125-3.969 4.39-5.14h5.406zM69.14 27l-5-7.813 3.109-2.718L74.328 27h-5.187z" fill="currentColor"/></g></symbol><symbol viewBox="0 0 48 24" id="nav-work2"><mask id="mask0_199_77" style="mask-type:alpha" maskUnits="userSpaceOnUse" x="0" y="0" width="48" height="24"><path d="M48 .746V23.5H.5v-6.358L48 .745z" fill="currentColor"/></mask><g mask="url(#mask0_199_77)"><path d="M-20.86 18.39l4.531-19.14h2.532l.578 3.188L-18.047 22h-2.72l-.093-3.61zM-23.188-.75l3.75 19.14-.313 3.61h-3.03L-27.83-.75h4.641zm13.953 19.063L-5.532-.75h4.64L-5.921 22h-3.032l-.28-3.687zM-12.375-.75l4.562 19.219L-7.938 22h-2.719l-4.86-19.578.626-3.172h2.515zM.154 13.72v-.328c0-1.24.178-2.38.532-3.422.354-1.052.87-1.964 1.547-2.734a6.932 6.932 0 012.5-1.797C5.724 5 6.859 4.78 8.14 4.78c1.281 0 2.422.22 3.422.657a6.901 6.901 0 012.516 1.797c.687.77 1.208 1.682 1.562 2.734.354 1.042.531 2.182.531 3.422v.328c0 1.23-.177 2.37-.53 3.422a7.973 7.973 0 01-1.563 2.734 6.93 6.93 0 01-2.5 1.797c-.99.427-2.125.64-3.407.64-1.28 0-2.421-.213-3.421-.64a7.08 7.08 0 01-2.516-1.797A8.113 8.113 0 01.687 17.14c-.354-1.052-.531-2.193-.531-3.422zm4.5-.328v.328c0 .708.063 1.37.188 1.984.125.615.323 1.157.594 1.625.281.459.646.818 1.094 1.079.448.26.995.39 1.64.39.625 0 1.162-.13 1.61-.39.448-.26.807-.62 1.078-1.079.27-.468.469-1.01.594-1.625a9.208 9.208 0 00.203-1.984v-.328a8.87 8.87 0 00-.203-1.938 5.115 5.115 0 00-.61-1.625 3.021 3.021 0 00-1.078-1.125c-.448-.27-.99-.406-1.625-.406s-1.177.136-1.625.406a3.201 3.201 0 00-1.078 1.125 5.362 5.362 0 00-.594 1.625 9.553 9.553 0 00-.187 1.938zm18.782-4.61v13.22h-4.5V5.093h4.234l.266 3.687zm5.094-3.796l-.078 4.171a10.866 10.866 0 00-.797-.078 8.104 8.104 0 00-.828-.047c-.636 0-1.188.084-1.657.25a2.964 2.964 0 00-1.156.704 3.071 3.071 0 00-.687 1.14 5.61 5.61 0 00-.25 1.531l-.907-.28c0-1.095.11-2.1.329-3.016.218-.927.536-1.735.953-2.422.427-.688.948-1.219 1.562-1.594.615-.375 1.318-.563 2.11-.563.25 0 .505.021.765.063.26.031.474.078.64.14zm6.625-7V22h-4.5V-2.015h4.5zm10.656 7.109l-7.344 8.375-3.937 3.984-1.64-3.25 3.124-3.968 4.39-5.141h5.407zM41.14 22l-5-7.812 3.11-2.719L46.328 22H41.14z" fill="currentColor"/></g></symbol><symbol viewBox="0 0 24 24" id="facebook"><path fill-rule="evenodd" clip-rule="evenodd" d="M11.954 24h.01-.01zm.085 0h-.004.01-.006zm-.121 0h.011-.012zm.16 0h-.007.011-.004zm-.196 0h.008-.008zm.234 0h-.006.008-.002zm.039-.001h-.003.01-.007zm-.318 0h.01-.01zm.357 0h-.007.013-.006zm-.394 0h.013-.013zm.432-.001h-.008.012-.004zm-.468 0h.012-.012zm-.044-.001h.01-.01zm.55 0h.01-.01zm-.588-.001h.014-.015zm.627 0h-.005.014-.008zm.04-.001h-.01.014-.005zm-.703 0h.015-.015zm-.033-.001h.01-.019.009zm.774 0h-.01.019-.01zm.038-.001h-.005.016-.01zm-.861 0h.016-.016zm-.035-.002h.017-.017zm.935 0h-.01.017-.007zm-.97-.002l.017.001h-.017zm1.008 0l-.013.001h.017-.004zm-1.056-.002l.018.001h-.018zm1.094.001h-.004.018-.014zm-1.128-.002h.018-.019zm1.167 0h-.009.018-.01zm-1.202-.002l.019.001h-.019zm1.24 0l-.013.001h.019-.006zm.038-.002l-.016.001h.014l.018-.002-.015.001zm-1.308 0l.014.001h-.017l-.015-.002.018.002zm1.347-.002h-.008.02-.012zm-1.4 0h.02-.019zm-.033-.003l.019.002-.012-.001h-.007zm1.471.001h-.012.02-.008zm-1.503-.003l.017.002-.016-.001-.016-.001h.015zm1.541 0l-.016.002.017-.002h.015-.016zm.038-.002h-.005.018-.013zm-1.629 0h.018-.018zm-.034-.003l.018.001h-.01l-.008-.001zm1.702 0l-.01.001.018-.001h-.008zm-1.735-.002h.016-.016zm1.773 0h-.013.016-.003zm-1.819-.004l.015.001h-.014zm1.857.001h-.004.015-.011zm.038-.003h-.007.014-.007zm-1.93 0h.015-.015zm-.034-.003h.013-.012zm2.002 0h-.009.012H13zm-2.039-.003h.004-.004zm2.077 0h.003-.003zm.038-.004h-.004.009-.005zm-2.155 0h.009-.009zm-.035-.003h.006-.006zm2.228 0h-.004.006-.002zm-2.988-.095C4.391 22.953 0 17.985 0 12 0 5.377 5.377 0 12 0s12 5.377 12 12c0 5.985-4.391 10.953-10.125 11.854V15.47h2.796l.532-3.47h-3.328V9.749c0-.949.465-1.874 1.956-1.874h1.513V4.922s-1.374-.234-2.686-.234c-2.742 0-4.533 1.66-4.533 4.668V12H7.078v3.469h3.047v8.385z"/></symbol><symbol viewBox="0 0 24 24" id="instagram"><path fill-rule="evenodd" clip-rule="evenodd" d="M12 0c6.623 0 12 5.377 12 12s-5.377 12-12 12S0 18.623 0 12 5.377 0 12 0zm0 4.5c-2.037 0-2.292.009-3.092.045-.799.037-1.344.163-1.82.349a3.677 3.677 0 00-1.33.865 3.677 3.677 0 00-.864 1.328c-.186.477-.312 1.022-.349 1.82C4.51 9.708 4.5 9.964 4.5 12s.009 2.292.045 3.092c.037.798.163 1.344.349 1.82.191.494.448.912.865 1.33.417.416.835.673 1.328.864.477.186 1.022.312 1.82.349.8.036 1.056.045 3.093.045s2.292-.009 3.092-.045c.798-.037 1.344-.163 1.82-.349a3.677 3.677 0 001.33-.865c.416-.417.673-.835.864-1.328.186-.477.312-1.023.349-1.82.036-.8.045-1.056.045-3.093s-.009-2.292-.045-3.092c-.037-.799-.163-1.344-.349-1.82a3.676 3.676 0 00-.865-1.33 3.677 3.677 0 00-1.328-.864c-.477-.186-1.023-.312-1.82-.349-.8-.036-1.056-.045-3.093-.045zm0 1.351c2.003 0 2.24.008 3.03.044.732.033 1.129.156 1.393.258.35.136.6.299.863.561.262.263.425.513.56.863.103.264.226.661.259 1.392.036.791.044 1.028.044 3.031s-.008 2.24-.044 3.03c-.033.732-.156 1.129-.258 1.393-.136.35-.299.6-.561.863a2.323 2.323 0 01-.863.56c-.264.103-.661.226-1.392.259-.791.036-1.028.044-3.031.044s-2.24-.008-3.03-.044c-.732-.033-1.129-.156-1.393-.258-.35-.136-.6-.299-.863-.561a2.322 2.322 0 01-.56-.863c-.103-.264-.226-.661-.259-1.392-.036-.791-.044-1.028-.044-3.031s.008-2.24.044-3.03c.033-.732.156-1.129.258-1.393.136-.35.299-.6.561-.863.263-.262.513-.425.863-.56.264-.103.661-.226 1.392-.259.791-.036 1.028-.044 3.031-.044zm0 2.298a3.851 3.851 0 100 7.702 3.851 3.851 0 000-7.702zm0 6.351a2.5 2.5 0 110-5 2.5 2.5 0 010 5zm4.904-6.503a.9.9 0 11-1.8 0 .9.9 0 011.8 0z"/></symbol><symbol viewBox="0 0 24 24" id="telegram"><path d="M12 0C5.371 0 0 5.371 0 12s5.371 12 12 12 12-5.371 12-12S18.629 0 12 0zm5.893 8.221l-1.969 9.28c-.145.659-.537.818-1.084.509l-3-2.212-1.447 1.394c-.16.16-.295.295-.604.295l.213-3.053 5.56-5.023c.241-.213-.054-.334-.373-.12l-6.871 4.325-2.962-.924c-.643-.203-.658-.644.136-.953l11.57-4.462c.536-.193 1.006.131.831.944z"/></symbol></svg>