<svg width="67" height="23" viewBox="0 0 67 23" fill="none" xmlns="http://www.w3.org/2000/svg">
<mask id="mask0_199_84" style="mask-type:alpha" maskUnits="userSpaceOnUse" x="0" y="0" width="67" height="23">
<path d="M67 0.38127V23.0001H0V20.461L67 0.38127Z" fill="#C4C4C4"/>
</mask>
<g mask="url(#mask0_199_84)">
<path d="M-10.7188 3.14062L-16.9062 22H-21.8906L-13.4375 -0.75H-10.2656L-10.7188 3.14062ZM-5.57812 22L-11.7812 3.14062L-12.2812 -0.75H-9.07812L-0.578125 22H-5.57812ZM-5.85938 13.5312V17.2031H-17.875V13.5312H-5.85938ZM1.25 -2H5.75V18.125L5.29688 22H1.25V-2ZM16.4531 13.375V13.7031C16.4531 14.9635 16.3177 16.1198 16.0469 17.1719C15.7865 18.224 15.3802 19.1354 14.8281 19.9062C14.276 20.6667 13.5885 21.2604 12.7656 21.6875C11.9531 22.1042 10.9948 22.3125 9.89062 22.3125C8.85938 22.3125 7.96354 22.1042 7.20312 21.6875C6.45312 21.2708 5.82292 20.6823 5.3125 19.9219C4.80208 19.1615 4.39062 18.2708 4.07812 17.25C3.76562 16.2292 3.53125 15.1146 3.375 13.9062V13.1875C3.53125 11.9792 3.76562 10.8646 4.07812 9.84375C4.39062 8.82292 4.80208 7.93229 5.3125 7.17188C5.82292 6.41146 6.45312 5.82292 7.20312 5.40625C7.95312 4.98958 8.83854 4.78125 9.85938 4.78125C10.974 4.78125 11.9427 4.99479 12.7656 5.42188C13.599 5.83854 14.2865 6.43229 14.8281 7.20312C15.3802 7.96354 15.7865 8.86979 16.0469 9.92188C16.3177 10.9635 16.4531 12.1146 16.4531 13.375ZM11.9531 13.7031V13.375C11.9531 12.6875 11.901 12.0417 11.7969 11.4375C11.7031 10.8229 11.5365 10.2865 11.2969 9.82812C11.0573 9.35938 10.7292 8.98958 10.3125 8.71875C9.90625 8.44792 9.38021 8.3125 8.73438 8.3125C8.11979 8.3125 7.59896 8.41667 7.17188 8.625C6.74479 8.83333 6.39062 9.125 6.10938 9.5C5.83854 9.875 5.63542 10.3229 5.5 10.8438C5.36458 11.3542 5.28125 11.9167 5.25 12.5312V14.5781C5.28125 15.401 5.41667 16.1302 5.65625 16.7656C5.90625 17.3906 6.28125 17.8854 6.78125 18.25C7.29167 18.6042 7.95312 18.7812 8.76562 18.7812C9.40104 18.7812 9.92708 18.6562 10.3438 18.4062C10.7604 18.1562 11.0833 17.8021 11.3125 17.3438C11.5521 16.8854 11.7188 16.349 11.8125 15.7344C11.9062 15.1094 11.9531 14.4323 11.9531 13.7031ZM18.5312 13.7188V13.3906C18.5312 12.151 18.7083 11.0104 19.0625 9.96875C19.4167 8.91667 19.9323 8.00521 20.6094 7.23438C21.2865 6.46354 22.1198 5.86458 23.1094 5.4375C24.099 5 25.2344 4.78125 26.5156 4.78125C27.7969 4.78125 28.9375 5 29.9375 5.4375C30.9375 5.86458 31.776 6.46354 32.4531 7.23438C33.1406 8.00521 33.6615 8.91667 34.0156 9.96875C34.3698 11.0104 34.5469 12.151 34.5469 13.3906V13.7188C34.5469 14.9479 34.3698 16.0885 34.0156 17.1406C33.6615 18.1823 33.1406 19.0938 32.4531 19.875C31.776 20.6458 30.9427 21.2448 29.9531 21.6719C28.9635 22.099 27.8281 22.3125 26.5469 22.3125C25.2656 22.3125 24.125 22.099 23.125 21.6719C22.1354 21.2448 21.2969 20.6458 20.6094 19.875C19.9323 19.0938 19.4167 18.1823 19.0625 17.1406C18.7083 16.0885 18.5312 14.9479 18.5312 13.7188ZM23.0312 13.3906V13.7188C23.0312 14.4271 23.0938 15.0885 23.2188 15.7031C23.3438 16.3177 23.5417 16.8594 23.8125 17.3281C24.0938 17.7865 24.4583 18.1458 24.9062 18.4062C25.3542 18.6667 25.901 18.7969 26.5469 18.7969C27.1719 18.7969 27.7083 18.6667 28.1562 18.4062C28.6042 18.1458 28.9635 17.7865 29.2344 17.3281C29.5052 16.8594 29.7031 16.3177 29.8281 15.7031C29.9635 15.0885 30.0312 14.4271 30.0312 13.7188V13.3906C30.0312 12.7031 29.9635 12.0573 29.8281 11.4531C29.7031 10.8385 29.5 10.2969 29.2188 9.82812C28.9479 9.34896 28.5885 8.97396 28.1406 8.70312C27.6927 8.43229 27.151 8.29688 26.5156 8.29688C25.8802 8.29688 25.3385 8.43229 24.8906 8.70312C24.4531 8.97396 24.0938 9.34896 23.8125 9.82812C23.5417 10.2969 23.3438 10.8385 23.2188 11.4531C23.0938 12.0573 23.0312 12.7031 23.0312 13.3906ZM47.3125 17.9531V5.09375H51.8125V22H47.5781L47.3125 17.9531ZM47.8125 14.4844L49.1406 14.4531C49.1406 15.5781 49.0104 16.625 48.75 17.5938C48.4896 18.5521 48.099 19.3854 47.5781 20.0938C47.0573 20.7917 46.401 21.3385 45.6094 21.7344C44.8177 22.1198 43.8854 22.3125 42.8125 22.3125C41.9896 22.3125 41.2292 22.1979 40.5312 21.9688C39.8438 21.7292 39.25 21.3594 38.75 20.8594C38.2604 20.349 37.875 19.6979 37.5938 18.9062C37.3229 18.1042 37.1875 17.1406 37.1875 16.0156V5.09375H41.6875V16.0469C41.6875 16.5469 41.7448 16.9688 41.8594 17.3125C41.9844 17.6562 42.1562 17.9375 42.375 18.1562C42.5938 18.375 42.849 18.5312 43.1406 18.625C43.4427 18.7188 43.776 18.7656 44.1406 18.7656C45.0677 18.7656 45.7969 18.5781 46.3281 18.2031C46.8698 17.8281 47.25 17.3177 47.4688 16.6719C47.6979 16.0156 47.8125 15.2865 47.8125 14.4844ZM63.5312 5.09375V8.28125H53.6875V5.09375H63.5312ZM56.125 0.921875H60.625V16.9062C60.625 17.3958 60.6875 17.7708 60.8125 18.0312C60.9479 18.2917 61.1458 18.474 61.4062 18.5781C61.6667 18.6719 61.9948 18.7188 62.3906 18.7188C62.6719 18.7188 62.9219 18.7083 63.1406 18.6875C63.3698 18.6562 63.5625 18.625 63.7188 18.5938L63.7344 21.9062C63.349 22.0312 62.9323 22.1302 62.4844 22.2031C62.0365 22.276 61.5417 22.3125 61 22.3125C60.0104 22.3125 59.1458 22.151 58.4062 21.8281C57.6771 21.4948 57.1146 20.9635 56.7188 20.2344C56.3229 19.5052 56.125 18.5469 56.125 17.3594V0.921875Z" fill="black"/>
</g>
</svg>
