<svg width="91" height="28" viewBox="0 0 91 28" fill="none" xmlns="http://www.w3.org/2000/svg">
<mask id="mask0_199_87" style="mask-type:alpha" maskUnits="userSpaceOnUse" x="0" y="0" width="91" height="28">
<path d="M24 26.0645V6.48499e-05H91V6.00006L24 26.0645Z" fill="#C4C4C4"/>
<path d="M0 0H24V28H0V0Z" fill="#C4C4C4"/>
</mask>
<g mask="url(#mask0_199_87)">
<path d="M13.2812 8.14062L7.09375 27H2.10938L10.5625 4.25H13.7344L13.2812 8.14062ZM18.4219 27L12.2188 8.14062L11.7188 4.25H14.9219L23.4219 27H18.4219ZM18.1406 18.5312V22.2031H6.125V18.5312H18.1406ZM25.25 3H29.75V23.125L29.2969 27H25.25V3ZM40.4531 18.375V18.7031C40.4531 19.9635 40.3177 21.1198 40.0469 22.1719C39.7865 23.224 39.3802 24.1354 38.8281 24.9062C38.276 25.6667 37.5885 26.2604 36.7656 26.6875C35.9531 27.1042 34.9948 27.3125 33.8906 27.3125C32.8594 27.3125 31.9635 27.1042 31.2031 26.6875C30.4531 26.2708 29.8229 25.6823 29.3125 24.9219C28.8021 24.1615 28.3906 23.2708 28.0781 22.25C27.7656 21.2292 27.5312 20.1146 27.375 18.9062V18.1875C27.5312 16.9792 27.7656 15.8646 28.0781 14.8438C28.3906 13.8229 28.8021 12.9323 29.3125 12.1719C29.8229 11.4115 30.4531 10.8229 31.2031 10.4062C31.9531 9.98958 32.8385 9.78125 33.8594 9.78125C34.974 9.78125 35.9427 9.99479 36.7656 10.4219C37.599 10.8385 38.2865 11.4323 38.8281 12.2031C39.3802 12.9635 39.7865 13.8698 40.0469 14.9219C40.3177 15.9635 40.4531 17.1146 40.4531 18.375ZM35.9531 18.7031V18.375C35.9531 17.6875 35.901 17.0417 35.7969 16.4375C35.7031 15.8229 35.5365 15.2865 35.2969 14.8281C35.0573 14.3594 34.7292 13.9896 34.3125 13.7188C33.9062 13.4479 33.3802 13.3125 32.7344 13.3125C32.1198 13.3125 31.599 13.4167 31.1719 13.625C30.7448 13.8333 30.3906 14.125 30.1094 14.5C29.8385 14.875 29.6354 15.3229 29.5 15.8438C29.3646 16.3542 29.2812 16.9167 29.25 17.5312V19.5781C29.2812 20.401 29.4167 21.1302 29.6562 21.7656C29.9062 22.3906 30.2812 22.8854 30.7812 23.25C31.2917 23.6042 31.9531 23.7812 32.7656 23.7812C33.401 23.7812 33.9271 23.6562 34.3438 23.4062C34.7604 23.1562 35.0833 22.8021 35.3125 22.3438C35.5521 21.8854 35.7188 21.349 35.8125 20.7344C35.9062 20.1094 35.9531 19.4323 35.9531 18.7031ZM42.5312 18.7188V18.3906C42.5312 17.151 42.7083 16.0104 43.0625 14.9688C43.4167 13.9167 43.9323 13.0052 44.6094 12.2344C45.2865 11.4635 46.1198 10.8646 47.1094 10.4375C48.099 10 49.2344 9.78125 50.5156 9.78125C51.7969 9.78125 52.9375 10 53.9375 10.4375C54.9375 10.8646 55.776 11.4635 56.4531 12.2344C57.1406 13.0052 57.6615 13.9167 58.0156 14.9688C58.3698 16.0104 58.5469 17.151 58.5469 18.3906V18.7188C58.5469 19.9479 58.3698 21.0885 58.0156 22.1406C57.6615 23.1823 57.1406 24.0938 56.4531 24.875C55.776 25.6458 54.9427 26.2448 53.9531 26.6719C52.9635 27.099 51.8281 27.3125 50.5469 27.3125C49.2656 27.3125 48.125 27.099 47.125 26.6719C46.1354 26.2448 45.2969 25.6458 44.6094 24.875C43.9323 24.0938 43.4167 23.1823 43.0625 22.1406C42.7083 21.0885 42.5312 19.9479 42.5312 18.7188ZM47.0312 18.3906V18.7188C47.0312 19.4271 47.0938 20.0885 47.2188 20.7031C47.3438 21.3177 47.5417 21.8594 47.8125 22.3281C48.0938 22.7865 48.4583 23.1458 48.9062 23.4062C49.3542 23.6667 49.901 23.7969 50.5469 23.7969C51.1719 23.7969 51.7083 23.6667 52.1562 23.4062C52.6042 23.1458 52.9635 22.7865 53.2344 22.3281C53.5052 21.8594 53.7031 21.3177 53.8281 20.7031C53.9635 20.0885 54.0312 19.4271 54.0312 18.7188V18.3906C54.0312 17.7031 53.9635 17.0573 53.8281 16.4531C53.7031 15.8385 53.5 15.2969 53.2188 14.8281C52.9479 14.349 52.5885 13.974 52.1406 13.7031C51.6927 13.4323 51.151 13.2969 50.5156 13.2969C49.8802 13.2969 49.3385 13.4323 48.8906 13.7031C48.4531 13.974 48.0938 14.349 47.8125 14.8281C47.5417 15.2969 47.3438 15.8385 47.2188 16.4531C47.0938 17.0573 47.0312 17.7031 47.0312 18.3906ZM71.3125 22.9531V10.0938H75.8125V27H71.5781L71.3125 22.9531ZM71.8125 19.4844L73.1406 19.4531C73.1406 20.5781 73.0104 21.625 72.75 22.5938C72.4896 23.5521 72.099 24.3854 71.5781 25.0938C71.0573 25.7917 70.401 26.3385 69.6094 26.7344C68.8177 27.1198 67.8854 27.3125 66.8125 27.3125C65.9896 27.3125 65.2292 27.1979 64.5312 26.9688C63.8438 26.7292 63.25 26.3594 62.75 25.8594C62.2604 25.349 61.875 24.6979 61.5938 23.9062C61.3229 23.1042 61.1875 22.1406 61.1875 21.0156V10.0938H65.6875V21.0469C65.6875 21.5469 65.7448 21.9688 65.8594 22.3125C65.9844 22.6562 66.1562 22.9375 66.375 23.1562C66.5938 23.375 66.849 23.5312 67.1406 23.625C67.4427 23.7188 67.776 23.7656 68.1406 23.7656C69.0677 23.7656 69.7969 23.5781 70.3281 23.2031C70.8698 22.8281 71.25 22.3177 71.4688 21.6719C71.6979 21.0156 71.8125 20.2865 71.8125 19.4844ZM87.5312 10.0938V13.2812H77.6875V10.0938H87.5312ZM80.125 5.92188H84.625V21.9062C84.625 22.3958 84.6875 22.7708 84.8125 23.0312C84.9479 23.2917 85.1458 23.474 85.4062 23.5781C85.6667 23.6719 85.9948 23.7188 86.3906 23.7188C86.6719 23.7188 86.9219 23.7083 87.1406 23.6875C87.3698 23.6562 87.5625 23.625 87.7188 23.5938L87.7344 26.9062C87.349 27.0312 86.9323 27.1302 86.4844 27.2031C86.0365 27.276 85.5417 27.3125 85 27.3125C84.0104 27.3125 83.1458 27.151 82.4062 26.8281C81.6771 26.4948 81.1146 25.9635 80.7188 25.2344C80.3229 24.5052 80.125 23.5469 80.125 22.3594V5.92188Z" fill="black"/>
</g>
</svg>
