<svg width="121" height="28" viewBox="0 0 121 28" fill="none" xmlns="http://www.w3.org/2000/svg">
<mask id="mask0_199_96" style="mask-type:alpha" maskUnits="userSpaceOnUse" x="0" y="0" width="121" height="28">
<path d="M23 25.1058V0.161312H121V6.87281L23 25.1058Z" fill="#C4C4C4"/>
<path d="M0 0H24V28H0V0Z" fill="#C4C4C4"/>
</mask>
<g mask="url(#mask0_199_96)">
<path d="M17.2188 19.4531H21.8906C21.7969 20.9844 21.375 22.3438 20.625 23.5312C19.8854 24.7188 18.849 25.6458 17.5156 26.3125C16.1927 26.9792 14.599 27.3125 12.7344 27.3125C11.276 27.3125 9.96875 27.0625 8.8125 26.5625C7.65625 26.0521 6.66667 25.3229 5.84375 24.375C5.03125 23.4271 4.41146 22.2812 3.98438 20.9375C3.55729 19.5938 3.34375 18.0885 3.34375 16.4219V14.8438C3.34375 13.1771 3.5625 11.6719 4 10.3281C4.44792 8.97396 5.08333 7.82292 5.90625 6.875C6.73958 5.92708 7.73438 5.19792 8.89062 4.6875C10.0469 4.17708 11.3385 3.92188 12.7656 3.92188C14.6615 3.92188 16.2604 4.26562 17.5625 4.95312C18.875 5.64062 19.8906 6.58854 20.6094 7.79688C21.3385 9.00521 21.776 10.3802 21.9219 11.9219H17.2344C17.1823 11.0052 17 10.2292 16.6875 9.59375C16.375 8.94792 15.901 8.46354 15.2656 8.14062C14.6406 7.80729 13.8073 7.64062 12.7656 7.64062C11.9844 7.64062 11.3021 7.78646 10.7188 8.07812C10.1354 8.36979 9.64583 8.8125 9.25 9.40625C8.85417 10 8.55729 10.75 8.35938 11.6562C8.17188 12.5521 8.07812 13.6042 8.07812 14.8125V16.4219C8.07812 17.599 8.16667 18.6354 8.34375 19.5312C8.52083 20.4167 8.79167 21.1667 9.15625 21.7812C9.53125 22.3854 10.0104 22.8438 10.5938 23.1562C11.1875 23.4583 11.901 23.6094 12.7344 23.6094C13.7135 23.6094 14.5208 23.4531 15.1562 23.1406C15.7917 22.8281 16.276 22.3646 16.6094 21.75C16.9531 21.1354 17.1562 20.3698 17.2188 19.4531ZM23.9688 18.7188V18.3906C23.9688 17.151 24.1458 16.0104 24.5 14.9688C24.8542 13.9167 25.3698 13.0052 26.0469 12.2344C26.724 11.4635 27.5573 10.8646 28.5469 10.4375C29.5365 10 30.6719 9.78125 31.9531 9.78125C33.2344 9.78125 34.375 10 35.375 10.4375C36.375 10.8646 37.2135 11.4635 37.8906 12.2344C38.5781 13.0052 39.099 13.9167 39.4531 14.9688C39.8073 16.0104 39.9844 17.151 39.9844 18.3906V18.7188C39.9844 19.9479 39.8073 21.0885 39.4531 22.1406C39.099 23.1823 38.5781 24.0938 37.8906 24.875C37.2135 25.6458 36.3802 26.2448 35.3906 26.6719C34.401 27.099 33.2656 27.3125 31.9844 27.3125C30.7031 27.3125 29.5625 27.099 28.5625 26.6719C27.5729 26.2448 26.7344 25.6458 26.0469 24.875C25.3698 24.0938 24.8542 23.1823 24.5 22.1406C24.1458 21.0885 23.9688 19.9479 23.9688 18.7188ZM28.4688 18.3906V18.7188C28.4688 19.4271 28.5312 20.0885 28.6562 20.7031C28.7812 21.3177 28.9792 21.8594 29.25 22.3281C29.5312 22.7865 29.8958 23.1458 30.3438 23.4062C30.7917 23.6667 31.3385 23.7969 31.9844 23.7969C32.6094 23.7969 33.1458 23.6667 33.5938 23.4062C34.0417 23.1458 34.401 22.7865 34.6719 22.3281C34.9427 21.8594 35.1406 21.3177 35.2656 20.7031C35.401 20.0885 35.4688 19.4271 35.4688 18.7188V18.3906C35.4688 17.7031 35.401 17.0573 35.2656 16.4531C35.1406 15.8385 34.9375 15.2969 34.6562 14.8281C34.3854 14.349 34.026 13.974 33.5781 13.7031C33.1302 13.4323 32.5885 13.2969 31.9531 13.2969C31.3177 13.2969 30.776 13.4323 30.3281 13.7031C29.8906 13.974 29.5312 14.349 29.25 14.8281C28.9792 15.2969 28.7812 15.8385 28.6562 16.4531C28.5312 17.0573 28.4688 17.7031 28.4688 18.3906ZM47.1562 13.7031V27H42.6562V10.0938H46.875L47.1562 13.7031ZM46.5 17.9531H45.2812C45.2812 16.7031 45.4427 15.5781 45.7656 14.5781C46.0885 13.5677 46.5417 12.7083 47.125 12C47.7083 11.2812 48.401 10.7344 49.2031 10.3594C50.0156 9.97396 50.9219 9.78125 51.9219 9.78125C52.7135 9.78125 53.4375 9.89583 54.0938 10.125C54.75 10.3542 55.3125 10.7188 55.7812 11.2188C56.2604 11.7188 56.625 12.3802 56.875 13.2031C57.1354 14.026 57.2656 15.0312 57.2656 16.2188V27H52.7344V16.2031C52.7344 15.4531 52.6302 14.8698 52.4219 14.4531C52.2135 14.0365 51.9062 13.7448 51.5 13.5781C51.1042 13.401 50.6146 13.3125 50.0312 13.3125C49.4271 13.3125 48.901 13.4323 48.4531 13.6719C48.0156 13.9115 47.651 14.2448 47.3594 14.6719C47.0781 15.0885 46.8646 15.5781 46.7188 16.1406C46.5729 16.7031 46.5 17.3073 46.5 17.9531ZM68.9688 10.0938V13.2812H59.125V10.0938H68.9688ZM61.5625 5.92188H66.0625V21.9062C66.0625 22.3958 66.125 22.7708 66.25 23.0312C66.3854 23.2917 66.5833 23.474 66.8438 23.5781C67.1042 23.6719 67.4323 23.7188 67.8281 23.7188C68.1094 23.7188 68.3594 23.7083 68.5781 23.6875C68.8073 23.6562 69 23.625 69.1562 23.5938L69.1719 26.9062C68.7865 27.0312 68.3698 27.1302 67.9219 27.2031C67.474 27.276 66.9792 27.3125 66.4375 27.3125C65.4479 27.3125 64.5833 27.151 63.8438 26.8281C63.1146 26.4948 62.5521 25.9635 62.1562 25.2344C61.7604 24.5052 61.5625 23.5469 61.5625 22.3594V5.92188ZM80.6562 23.1875V15.6562C80.6562 15.1146 80.5677 14.651 80.3906 14.2656C80.2135 13.8698 79.9375 13.5625 79.5625 13.3438C79.1979 13.125 78.724 13.0156 78.1406 13.0156C77.6406 13.0156 77.2083 13.1042 76.8438 13.2812C76.4792 13.4479 76.1979 13.6927 76 14.0156C75.8021 14.3281 75.7031 14.6979 75.7031 15.125H71.2031C71.2031 14.4062 71.3698 13.724 71.7031 13.0781C72.0365 12.4323 72.5208 11.8646 73.1562 11.375C73.7917 10.875 74.5469 10.4844 75.4219 10.2031C76.3073 9.92188 77.2969 9.78125 78.3906 9.78125C79.7031 9.78125 80.8698 10 81.8906 10.4375C82.9115 10.875 83.7135 11.5312 84.2969 12.4062C84.8906 13.2812 85.1875 14.375 85.1875 15.6875V22.9219C85.1875 23.849 85.2448 24.6094 85.3594 25.2031C85.474 25.7865 85.6406 26.2969 85.8594 26.7344V27H81.3125C81.0938 26.5417 80.9271 25.9688 80.8125 25.2812C80.7083 24.5833 80.6562 23.8854 80.6562 23.1875ZM81.25 16.7031L81.2812 19.25H78.7656C78.1719 19.25 77.6562 19.3177 77.2188 19.4531C76.7812 19.5885 76.4219 19.7812 76.1406 20.0312C75.8594 20.2708 75.651 20.5521 75.5156 20.875C75.3906 21.1979 75.3281 21.5521 75.3281 21.9375C75.3281 22.3229 75.4167 22.6719 75.5938 22.9844C75.7708 23.2865 76.026 23.526 76.3594 23.7031C76.6927 23.8698 77.0833 23.9531 77.5312 23.9531C78.2083 23.9531 78.7969 23.8177 79.2969 23.5469C79.7969 23.276 80.1823 22.9427 80.4531 22.5469C80.7344 22.151 80.8802 21.776 80.8906 21.4219L82.0781 23.3281C81.9115 23.7552 81.6823 24.1979 81.3906 24.6562C81.1094 25.1146 80.75 25.5469 80.3125 25.9531C79.875 26.349 79.349 26.6771 78.7344 26.9375C78.1198 27.1875 77.3906 27.3125 76.5469 27.3125C75.474 27.3125 74.5 27.099 73.625 26.6719C72.7604 26.2344 72.0729 25.6354 71.5625 24.875C71.0625 24.1042 70.8125 23.2292 70.8125 22.25C70.8125 21.3646 70.9792 20.5781 71.3125 19.8906C71.6458 19.2031 72.1354 18.625 72.7812 18.1562C73.4375 17.6771 74.2552 17.3177 75.2344 17.0781C76.2135 16.8281 77.349 16.7031 78.6406 16.7031H81.25ZM95.6406 23.7969C96.1927 23.7969 96.6823 23.6927 97.1094 23.4844C97.5365 23.2656 97.8698 22.9635 98.1094 22.5781C98.3594 22.1823 98.4896 21.7188 98.5 21.1875H102.734C102.724 22.375 102.406 23.4323 101.781 24.3594C101.156 25.276 100.318 26 99.2656 26.5312C98.2135 27.0521 97.0365 27.3125 95.7344 27.3125C94.4219 27.3125 93.276 27.0938 92.2969 26.6562C91.3281 26.2188 90.5208 25.6146 89.875 24.8438C89.2292 24.0625 88.7448 23.1562 88.4219 22.125C88.099 21.0833 87.9375 19.9688 87.9375 18.7812V18.3281C87.9375 17.1302 88.099 16.0156 88.4219 14.9844C88.7448 13.9427 89.2292 13.0365 89.875 12.2656C90.5208 11.4844 91.3281 10.875 92.2969 10.4375C93.2656 10 94.401 9.78125 95.7031 9.78125C97.0885 9.78125 98.3021 10.0469 99.3438 10.5781C100.396 11.1094 101.219 11.8698 101.812 12.8594C102.417 13.8385 102.724 15 102.734 16.3438H98.5C98.4896 15.7812 98.3698 15.2708 98.1406 14.8125C97.9219 14.3542 97.599 13.9896 97.1719 13.7188C96.7552 13.4375 96.2396 13.2969 95.625 13.2969C94.9688 13.2969 94.4323 13.4375 94.0156 13.7188C93.599 13.9896 93.276 14.3646 93.0469 14.8438C92.8177 15.3125 92.6562 15.849 92.5625 16.4531C92.4792 17.0469 92.4375 17.6719 92.4375 18.3281V18.7812C92.4375 19.4375 92.4792 20.0677 92.5625 20.6719C92.6458 21.276 92.8021 21.8125 93.0312 22.2812C93.2708 22.75 93.599 23.1198 94.0156 23.3906C94.4323 23.6615 94.974 23.7969 95.6406 23.7969ZM113.625 10.0938V13.2812H103.781V10.0938H113.625ZM106.219 5.92188H110.719V21.9062C110.719 22.3958 110.781 22.7708 110.906 23.0312C111.042 23.2917 111.24 23.474 111.5 23.5781C111.76 23.6719 112.089 23.7188 112.484 23.7188C112.766 23.7188 113.016 23.7083 113.234 23.6875C113.464 23.6562 113.656 23.625 113.812 23.5938L113.828 26.9062C113.443 27.0312 113.026 27.1302 112.578 27.2031C112.13 27.276 111.635 27.3125 111.094 27.3125C110.104 27.3125 109.24 27.151 108.5 26.8281C107.771 26.4948 107.208 25.9635 106.812 25.2344C106.417 24.5052 106.219 23.5469 106.219 22.3594V5.92188Z" fill="black"/>
</g>
</svg>
