<svg width="94" height="22" viewBox="0 0 94 22" fill="none" xmlns="http://www.w3.org/2000/svg">
<mask id="mask0_199_93" style="mask-type:alpha" maskUnits="userSpaceOnUse" x="0" y="0" width="94" height="22">
<path d="M94 0.93457V21.6828H0V17.8827L94 0.93457Z" fill="#C4C4C4"/>
</mask>
<g mask="url(#mask0_199_93)">
<path d="M-7.78125 13.1357H-3.10938C-3.20312 14.667 -3.625 16.0264 -4.375 17.2139C-5.11458 18.4014 -6.15104 19.3285 -7.48438 19.9951C-8.80729 20.6618 -10.401 20.9951 -12.2656 20.9951C-13.724 20.9951 -15.0312 20.7451 -16.1875 20.2451C-17.3438 19.7347 -18.3333 19.0055 -19.1562 18.0576C-19.9688 17.1097 -20.5885 15.9639 -21.0156 14.6201C-21.4427 13.2764 -21.6562 11.7712 -21.6562 10.1045V8.52637C-21.6562 6.8597 -21.4375 5.35449 -21 4.01074C-20.5521 2.65658 -19.9167 1.50553 -19.0938 0.557617C-18.2604 -0.390299 -17.2656 -1.11947 -16.1094 -1.62988C-14.9531 -2.1403 -13.6615 -2.39551 -12.2344 -2.39551C-10.3385 -2.39551 -8.73958 -2.05176 -7.4375 -1.36426C-6.125 -0.676758 -5.10938 0.271159 -4.39062 1.47949C-3.66146 2.68783 -3.22396 4.06283 -3.07812 5.60449H-7.76562C-7.81771 4.68783 -8 3.91178 -8.3125 3.27637C-8.625 2.63053 -9.09896 2.14616 -9.73438 1.82324C-10.3594 1.48991 -11.1927 1.32324 -12.2344 1.32324C-13.0156 1.32324 -13.6979 1.46908 -14.2812 1.76074C-14.8646 2.05241 -15.3542 2.49512 -15.75 3.08887C-16.1458 3.68262 -16.4427 4.43262 -16.6406 5.33887C-16.8281 6.2347 -16.9219 7.28678 -16.9219 8.49512V10.1045C-16.9219 11.2816 -16.8333 12.318 -16.6562 13.2139C-16.4792 14.0993 -16.2083 14.8493 -15.8438 15.4639C-15.4688 16.068 -14.9896 16.5264 -14.4062 16.8389C-13.8125 17.141 -13.099 17.292 -12.2656 17.292C-11.2865 17.292 -10.4792 17.1357 -9.84375 16.8232C-9.20833 16.5107 -8.72396 16.0472 -8.39062 15.4326C-8.04688 14.818 -7.84375 14.0524 -7.78125 13.1357ZM-1.03125 12.4014V12.0732C-1.03125 10.8337 -0.854167 9.69303 -0.5 8.65137C-0.145833 7.59928 0.369792 6.68783 1.04688 5.91699C1.72396 5.14616 2.55729 4.5472 3.54688 4.12012C4.53646 3.68262 5.67188 3.46387 6.95312 3.46387C8.23438 3.46387 9.375 3.68262 10.375 4.12012C11.375 4.5472 12.2135 5.14616 12.8906 5.91699C13.5781 6.68783 14.099 7.59928 14.4531 8.65137C14.8073 9.69303 14.9844 10.8337 14.9844 12.0732V12.4014C14.9844 13.6305 14.8073 14.7712 14.4531 15.8232C14.099 16.8649 13.5781 17.7764 12.8906 18.5576C12.2135 19.3285 11.3802 19.9274 10.3906 20.3545C9.40104 20.7816 8.26562 20.9951 6.98438 20.9951C5.70312 20.9951 4.5625 20.7816 3.5625 20.3545C2.57292 19.9274 1.73438 19.3285 1.04688 18.5576C0.369792 17.7764 -0.145833 16.8649 -0.5 15.8232C-0.854167 14.7712 -1.03125 13.6305 -1.03125 12.4014ZM3.46875 12.0732V12.4014C3.46875 13.1097 3.53125 13.7712 3.65625 14.3857C3.78125 15.0003 3.97917 15.542 4.25 16.0107C4.53125 16.4691 4.89583 16.8285 5.34375 17.0889C5.79167 17.3493 6.33854 17.4795 6.98438 17.4795C7.60938 17.4795 8.14583 17.3493 8.59375 17.0889C9.04167 16.8285 9.40104 16.4691 9.67188 16.0107C9.94271 15.542 10.1406 15.0003 10.2656 14.3857C10.401 13.7712 10.4688 13.1097 10.4688 12.4014V12.0732C10.4688 11.3857 10.401 10.7399 10.2656 10.1357C10.1406 9.52116 9.9375 8.97949 9.65625 8.51074C9.38542 8.03158 9.02604 7.65658 8.57812 7.38574C8.13021 7.11491 7.58854 6.97949 6.95312 6.97949C6.31771 6.97949 5.77604 7.11491 5.32812 7.38574C4.89062 7.65658 4.53125 8.03158 4.25 8.51074C3.97917 8.97949 3.78125 9.52116 3.65625 10.1357C3.53125 10.7399 3.46875 11.3857 3.46875 12.0732ZM22.1562 7.38574V20.6826H17.6562V3.77637H21.875L22.1562 7.38574ZM21.5 11.6357H20.2812C20.2812 10.3857 20.4427 9.26074 20.7656 8.26074C21.0885 7.25033 21.5417 6.39095 22.125 5.68262C22.7083 4.96387 23.401 4.41699 24.2031 4.04199C25.0156 3.65658 25.9219 3.46387 26.9219 3.46387C27.7135 3.46387 28.4375 3.57845 29.0938 3.80762C29.75 4.03678 30.3125 4.40137 30.7812 4.90137C31.2604 5.40137 31.625 6.06283 31.875 6.88574C32.1354 7.70866 32.2656 8.71387 32.2656 9.90137V20.6826H27.7344V9.88574C27.7344 9.13574 27.6302 8.55241 27.4219 8.13574C27.2135 7.71908 26.9062 7.42741 26.5 7.26074C26.1042 7.08366 25.6146 6.99512 25.0312 6.99512C24.4271 6.99512 23.901 7.11491 23.4531 7.35449C23.0156 7.59408 22.651 7.92741 22.3594 8.35449C22.0781 8.77116 21.8646 9.26074 21.7188 9.82324C21.5729 10.3857 21.5 10.9899 21.5 11.6357ZM43.9688 3.77637V6.96387H34.125V3.77637H43.9688ZM36.5625 -0.395508H41.0625V15.5889C41.0625 16.0785 41.125 16.4535 41.25 16.7139C41.3854 16.9743 41.5833 17.1566 41.8438 17.2607C42.1042 17.3545 42.4323 17.4014 42.8281 17.4014C43.1094 17.4014 43.3594 17.391 43.5781 17.3701C43.8073 17.3389 44 17.3076 44.1562 17.2764L44.1719 20.5889C43.7865 20.7139 43.3698 20.8128 42.9219 20.8857C42.474 20.9587 41.9792 20.9951 41.4375 20.9951C40.4479 20.9951 39.5833 20.8337 38.8438 20.5107C38.1146 20.1774 37.5521 19.6462 37.1562 18.917C36.7604 18.1878 36.5625 17.2295 36.5625 16.042V-0.395508ZM55.6562 16.8701V9.33887C55.6562 8.7972 55.5677 8.33366 55.3906 7.94824C55.2135 7.55241 54.9375 7.24512 54.5625 7.02637C54.1979 6.80762 53.724 6.69824 53.1406 6.69824C52.6406 6.69824 52.2083 6.78678 51.8438 6.96387C51.4792 7.13053 51.1979 7.37533 51 7.69824C50.8021 8.01074 50.7031 8.38053 50.7031 8.80762H46.2031C46.2031 8.08887 46.3698 7.40658 46.7031 6.76074C47.0365 6.11491 47.5208 5.5472 48.1562 5.05762C48.7917 4.55762 49.5469 4.16699 50.4219 3.88574C51.3073 3.60449 52.2969 3.46387 53.3906 3.46387C54.7031 3.46387 55.8698 3.68262 56.8906 4.12012C57.9115 4.55762 58.7135 5.21387 59.2969 6.08887C59.8906 6.96387 60.1875 8.05762 60.1875 9.37012V16.6045C60.1875 17.5316 60.2448 18.292 60.3594 18.8857C60.474 19.4691 60.6406 19.9795 60.8594 20.417V20.6826H56.3125C56.0938 20.2243 55.9271 19.6514 55.8125 18.9639C55.7083 18.266 55.6562 17.568 55.6562 16.8701ZM56.25 10.3857L56.2812 12.9326H53.7656C53.1719 12.9326 52.6562 13.0003 52.2188 13.1357C51.7812 13.2712 51.4219 13.4639 51.1406 13.7139C50.8594 13.9535 50.651 14.2347 50.5156 14.5576C50.3906 14.8805 50.3281 15.2347 50.3281 15.6201C50.3281 16.0055 50.4167 16.3545 50.5938 16.667C50.7708 16.9691 51.026 17.2087 51.3594 17.3857C51.6927 17.5524 52.0833 17.6357 52.5312 17.6357C53.2083 17.6357 53.7969 17.5003 54.2969 17.2295C54.7969 16.9587 55.1823 16.6253 55.4531 16.2295C55.7344 15.8337 55.8802 15.4587 55.8906 15.1045L57.0781 17.0107C56.9115 17.4378 56.6823 17.8805 56.3906 18.3389C56.1094 18.7972 55.75 19.2295 55.3125 19.6357C54.875 20.0316 54.349 20.3597 53.7344 20.6201C53.1198 20.8701 52.3906 20.9951 51.5469 20.9951C50.474 20.9951 49.5 20.7816 48.625 20.3545C47.7604 19.917 47.0729 19.318 46.5625 18.5576C46.0625 17.7868 45.8125 16.9118 45.8125 15.9326C45.8125 15.0472 45.9792 14.2607 46.3125 13.5732C46.6458 12.8857 47.1354 12.3076 47.7812 11.8389C48.4375 11.3597 49.2552 11.0003 50.2344 10.7607C51.2135 10.5107 52.349 10.3857 53.6406 10.3857H56.25ZM70.6406 17.4795C71.1927 17.4795 71.6823 17.3753 72.1094 17.167C72.5365 16.9482 72.8698 16.6462 73.1094 16.2607C73.3594 15.8649 73.4896 15.4014 73.5 14.8701H77.7344C77.724 16.0576 77.4062 17.1149 76.7812 18.042C76.1562 18.9587 75.3177 19.6826 74.2656 20.2139C73.2135 20.7347 72.0365 20.9951 70.7344 20.9951C69.4219 20.9951 68.276 20.7764 67.2969 20.3389C66.3281 19.9014 65.5208 19.2972 64.875 18.5264C64.2292 17.7451 63.7448 16.8389 63.4219 15.8076C63.099 14.766 62.9375 13.6514 62.9375 12.4639V12.0107C62.9375 10.8128 63.099 9.69824 63.4219 8.66699C63.7448 7.62533 64.2292 6.71908 64.875 5.94824C65.5208 5.16699 66.3281 4.55762 67.2969 4.12012C68.2656 3.68262 69.401 3.46387 70.7031 3.46387C72.0885 3.46387 73.3021 3.72949 74.3438 4.26074C75.3958 4.79199 76.2188 5.55241 76.8125 6.54199C77.4167 7.52116 77.724 8.68262 77.7344 10.0264H73.5C73.4896 9.46387 73.3698 8.95345 73.1406 8.49512C72.9219 8.03678 72.599 7.6722 72.1719 7.40137C71.7552 7.12012 71.2396 6.97949 70.625 6.97949C69.9688 6.97949 69.4323 7.12012 69.0156 7.40137C68.599 7.6722 68.276 8.0472 68.0469 8.52637C67.8177 8.99512 67.6562 9.53158 67.5625 10.1357C67.4792 10.7295 67.4375 11.3545 67.4375 12.0107V12.4639C67.4375 13.1201 67.4792 13.7503 67.5625 14.3545C67.6458 14.9587 67.8021 15.4951 68.0312 15.9639C68.2708 16.4326 68.599 16.8024 69.0156 17.0732C69.4323 17.3441 69.974 17.4795 70.6406 17.4795ZM88.625 3.77637V6.96387H78.7812V3.77637H88.625ZM81.2188 -0.395508H85.7188V15.5889C85.7188 16.0785 85.7812 16.4535 85.9062 16.7139C86.0417 16.9743 86.2396 17.1566 86.5 17.2607C86.7604 17.3545 87.0885 17.4014 87.4844 17.4014C87.7656 17.4014 88.0156 17.391 88.2344 17.3701C88.4635 17.3389 88.6562 17.3076 88.8125 17.2764L88.8281 20.5889C88.4427 20.7139 88.026 20.8128 87.5781 20.8857C87.1302 20.9587 86.6354 20.9951 86.0938 20.9951C85.1042 20.9951 84.2396 20.8337 83.5 20.5107C82.7708 20.1774 82.2083 19.6462 81.8125 18.917C81.4167 18.1878 81.2188 17.2295 81.2188 16.042V-0.395508Z" fill="black"/>
</g>
</svg>
