<?xml version="1.0" encoding="iso-8859-1"?>
<!-- Generator: Adobe Illustrator 26.1.0, SVG Export Plug-In . SVG Version: 6.00 Build 0)  -->
<svg version="1.1" id="&#x421;&#x43B;&#x43E;&#x439;_1"
	 xmlns="http://www.w3.org/2000/svg" xmlns:xlink="http://www.w3.org/1999/xlink" x="0px" y="0px" width="1224.4px"
	 height="430.4px" viewBox="0 0 1224.4 430.4">

<path d="M312.6,169c0.6-3.5,1-8.3,1-14.4c0-47.9-44.5-71.8-133.6-71.8c-53,0-91.6,8.8-115.9,26.3c-11.2,7.7-19.6,17.4-25.4,29.2
	c-5.7,11.8-8.6,24.6-8.6,38.3c0,18.2,6.2,31.5,18.7,40c12.4,8.5,30.3,14,53.6,16.5l101.5,12c12.1,1.6,20.9,4,26.3,7.2
	c5.4,3.2,8.1,8.1,8.1,14.8c0,5.1-1.5,10.2-4.6,15.3c-3,5.1-7.2,9.6-12.7,13.4c-15.3,10.2-40,15.3-74.2,15.3
	c-26.8,0-47.3-3.1-61.5-9.3c-14.2-6.2-21.3-17.1-21.3-32.8c0-3.2,0.2-5.8,0.5-7.7H1.4c-1,6.1-1.4,12.3-1.4,18.7
	c0,28.7,12.1,48.7,36.4,59.8c24.2,11.2,58.9,16.8,103.9,16.8c28.4,0,53-2.1,73.7-6.2c20.8-4.1,38.1-10.9,52.2-20.1
	c12.4-8.3,21.9-19.4,28.5-33.3c6.5-13.9,9.8-28.5,9.8-43.8c0-18.8-6.2-32.5-18.4-40.9c-12.3-8.5-29.4-14-51.5-16.5l-105.8-11.5
	c-12.1-1.3-20.8-3.3-26.1-6.2c-5.3-2.9-7.9-7.3-7.9-13.4c0-3.8,0.9-7.7,2.6-11.5c1.8-3.8,4.2-6.9,7.4-9.1
	c14-10.9,37.2-16.3,69.4-16.3c26.5,0,46.1,3.1,58.9,9.3c12.8,6.2,18.2,16.8,16.3,31.8H312.6z"/>
<path d="M688.9,187.5c-0.7-32.1-11.8-57-33.3-75c-22.2-18.5-53.4-27.8-93.6-27.8c-46.3,0-83.9,14.8-113,44.5h-1.9l7.2-38.3h-58.9
	l-42.5,219l85.7-31.2c-7.4-10.5-11.1-23.2-11.1-38.4c0-11.2,2.2-22.4,6.5-33.8c4.3-11.3,10.1-21.8,17.5-31.4
	c10.5-13.1,23.6-23.3,39.3-30.6c15.6-7.3,33.2-11,52.7-11c54.9,0,82.3,21.1,82.3,63.2c0,4.7-0.3,9.4-0.8,14.1L688.9,187.5z"/>
<path d="M786.6,0L777,48.4h62.2L848.9,0H786.6z M769.9,91l-13.9,72.1l64.9-23.6l9.4-48.5H769.9z"/>
<path d="M938.9,91h-63.7l8.3,25.7l57-20.8L938.9,91z"/>
</svg>
