<?xml version="1.0" encoding="iso-8859-1"?>
<!-- Generator: Adobe Illustrator 26.1.0, SVG Export Plug-In . SVG Version: 6.00 Build 0)  -->
<svg version="1.1" id="&#x421;&#x43B;&#x43E;&#x439;_1"
	 xmlns="http://www.w3.org/2000/svg" xmlns:xlink="http://www.w3.org/1999/xlink" x="0px" y="0px" width="1224.4px"
	 height="430.4px" viewBox="0 0 1224.4 430.4" style="enable-background:new 0 0 1224.4 430.4;" xml:space="preserve">
<style type="text/css">
	.st0{fill:#FFFFFF;}
	.st1{fill:none;stroke:#000000;stroke-miterlimit:10;}
</style>
<path d="M709.7,179.4l-64,23.3c-1,8-2.7,16-5.4,24c-4.2,12.6-10.1,23.9-17.7,33.7c-20.8,26.2-51.4,39.3-91.9,39.3
	c-26.5,0-46.8-6-61-18c-4-3.4-7.4-7.1-10.3-11.1l-85.7,31.2l-25,128.6H409l24.4-124h1.9c8.6,13.1,21.1,23.4,37.6,30.9
	c16.4,7.5,37.1,11.3,62,11.3c28.1,0,53.5-4.6,76.1-13.9c22.7-9.2,41.7-22.7,57-40.2c13.1-15,23.3-32.4,30.6-52.2
	c7.3-19.8,11-39.7,11-59.8C709.7,181.4,709.7,180.4,709.7,179.4z"/>
<path d="M776.7,155l-35.9,185.4h60.3l40.4-209.1L776.7,155z"/>
<path d="M1154,82.8l-131.7,195.8h-1.9L961.2,87.8l-57,20.8l74.6,231.9h68.5l177.1-257.6H1154z"/>
</svg>
