<svg xmlns="http://www.w3.org/2000/svg">
    <symbol viewBox="0 0 24 24" id="facebook">
        <path fill-rule="evenodd" clip-rule="evenodd"
              d="M11.9542 23.9999L11.9649 24H11.9612L11.9542 23.9999ZM12.0388 24H12.0351L12.0458 23.9999L12.0388 24ZM11.9175 23.9997L11.9291 23.9998H11.9224L11.9175 23.9997ZM12.0776 23.9998H12.0709L12.0825 23.9997L12.0776 23.9998ZM11.8822 23.9994L11.8899 23.9995L11.8837 23.9994H11.8822ZM12.1163 23.9994L12.1101 23.9995L12.1178 23.9994H12.1163ZM12.155 23.999L12.1523 23.9991L12.1627 23.9989L12.155 23.999ZM11.8372 23.9989L11.8477 23.9991L11.845 23.999L11.8372 23.9989ZM12.1937 23.9985L12.1874 23.9985L12.2003 23.9984L12.1937 23.9985ZM11.7997 23.9984L11.8126 23.9985L11.8063 23.9985L11.7997 23.9984ZM12.2323 23.9978L12.2238 23.9979L12.2357 23.9977L12.2323 23.9978ZM11.7643 23.9977L11.7762 23.9979L11.7677 23.9978L11.7643 23.9977ZM11.7204 23.9968L11.7309 23.997L11.7291 23.997L11.7204 23.9968ZM12.2709 23.997L12.2691 23.997L12.2796 23.9968L12.2709 23.997ZM11.6819 23.9958L11.6963 23.9962L11.6905 23.9961L11.6819 23.9958ZM12.3095 23.9961L12.3037 23.9962L12.3181 23.9958L12.3095 23.9961ZM12.3481 23.995L12.3387 23.9953L12.3535 23.9949L12.3481 23.995ZM11.6465 23.9949L11.6613 23.9953L11.6519 23.995L11.6465 23.9949ZM11.6128 23.9939L11.6233 23.9942L11.6134 23.9939L11.6043 23.9936L11.6128 23.9939ZM12.3866 23.9939L12.3767 23.9942L12.3872 23.9939L12.3957 23.9936L12.3866 23.9939ZM12.4251 23.9926L12.4199 23.9928L12.436 23.9922L12.4251 23.9926ZM11.564 23.9922L11.5801 23.9928L11.5749 23.9926L11.564 23.9922ZM11.5289 23.9909L11.5458 23.9915L11.5364 23.9912L11.5289 23.9909ZM12.4636 23.9912L12.4542 23.9915L12.4711 23.9909L12.4636 23.9912ZM11.4944 23.9895L11.511 23.9902L11.498 23.9897L11.4944 23.9895ZM12.502 23.9897L12.489 23.9902L12.5056 23.9895L12.502 23.9897ZM11.4461 23.9874L11.4639 23.9882L11.4596 23.988L11.4461 23.9874ZM12.5404 23.988L12.5361 23.9882L12.5539 23.9874L12.5404 23.988ZM11.4115 23.9858L11.43 23.9866L11.4212 23.9863L11.4115 23.9858ZM12.5788 23.9863L12.57 23.9866L12.5885 23.9858L12.5788 23.9863ZM11.3774 23.9841L11.396 23.985L11.3829 23.9844L11.3774 23.9841ZM12.6171 23.9844L12.604 23.985L12.6226 23.9841L12.6171 23.9844ZM12.6555 23.9824L12.6385 23.9833L12.6535 23.9825L12.6713 23.9815L12.6555 23.9824ZM11.3465 23.9825L11.3615 23.9833L11.3445 23.9824L11.3287 23.9815L11.3465 23.9825ZM12.6937 23.9802L12.6862 23.9806L12.7052 23.9796L12.6937 23.9802ZM11.2948 23.9796L11.3138 23.9806L11.3063 23.9802L11.2948 23.9796ZM11.2609 23.9775L11.2799 23.9787L11.268 23.978L11.2609 23.9775ZM12.732 23.978L12.7201 23.9787L12.7391 23.9775L12.732 23.978ZM11.2286 23.9755L11.2457 23.9766L11.2298 23.9756L11.2138 23.9746L11.2286 23.9755ZM12.7702 23.9756L12.7543 23.9766L12.7714 23.9755L12.7862 23.9746L12.7702 23.9756ZM12.8084 23.9731L12.8026 23.9735L12.8208 23.9723L12.8084 23.9731ZM11.1792 23.9723L11.1974 23.9735L11.1916 23.9731L11.1792 23.9723ZM11.1454 23.97L11.1632 23.9712L11.1535 23.9706L11.1454 23.97ZM12.8465 23.9706L12.8368 23.9712L12.8546 23.97L12.8465 23.9706ZM11.1117 23.9676L11.1281 23.9687L11.1154 23.9678L11.1117 23.9676ZM12.8846 23.9678L12.8719 23.9687L12.8883 23.9676L12.8846 23.9678ZM11.0664 23.9641L11.0807 23.9652L11.0773 23.965L11.0664 23.9641ZM12.9227 23.965L12.9193 23.9652L12.9336 23.9641L12.9227 23.965ZM12.9608 23.962L12.9539 23.9625L12.9685 23.9614L12.9608 23.962ZM11.0315 23.9614L11.0461 23.9625L11.0392 23.962L11.0315 23.9614ZM10.9975 23.9586L11.0099 23.9596L11.0012 23.9589L10.9975 23.9586ZM12.9988 23.9589L12.9901 23.9596L13.0025 23.9586L12.9988 23.9589ZM10.9601 23.9555L10.9638 23.9558L10.9632 23.9557L10.9601 23.9555ZM13.0368 23.9557L13.0362 23.9558L13.0399 23.9555L13.0368 23.9557ZM13.0748 23.9524L13.0714 23.9527L13.0799 23.952L13.0748 23.9524ZM10.9201 23.952L10.9286 23.9527L10.9253 23.9524L10.9201 23.952ZM10.885 23.9488L10.8913 23.9494L10.8874 23.949L10.885 23.9488ZM13.1126 23.949L13.1087 23.9494L13.115 23.9488L13.1126 23.949ZM10.125 23.8541C4.3913 22.9529 0 17.9852 0 12C0 5.37703 5.37703 0 12 0C18.623 0 24 5.37703 24 12C24 17.9852 19.6087 22.9529 13.875 23.8541V15.4687H16.6711L17.2031 12H13.875V9.74901C13.875 8.80003 14.3399 7.875 15.8306 7.875H17.3438V4.92187C17.3438 4.92187 15.9705 4.6875 14.6576 4.6875C11.9165 4.6875 10.125 6.34875 10.125 9.35625V12H7.07812V15.4687H10.125V23.8541Z"
              fill="black"/>
    </symbol>

    <symbol viewBox="0 0 24 24" id="instagram">
        <path fill-rule="evenodd" clip-rule="evenodd"
              d="M12 0C18.623 0 24 5.37703 24 12C24 18.623 18.623 24 12 24C5.37703 24 0 18.623 0 12C0 5.37703 5.37703 0 12 0ZM12 4.5C9.96314 4.5 9.70772 4.50863 8.90775 4.54514C8.10947 4.58156 7.56427 4.70836 7.08717 4.89375C6.594 5.08542 6.17573 5.34188 5.75878 5.75883C5.34183 6.17578 5.08538 6.59405 4.8937 7.08722C4.70831 7.56427 4.58156 8.10947 4.54509 8.90775C4.50863 9.70772 4.5 9.96314 4.5 12C4.5 14.0369 4.50863 14.2923 4.54509 15.0922C4.58156 15.8905 4.70831 16.4357 4.8937 16.9128C5.08538 17.406 5.34183 17.8242 5.75878 18.2412C6.17573 18.6582 6.594 18.9146 7.08717 19.1063C7.56427 19.2916 8.10947 19.4184 8.90775 19.4549C9.70772 19.4914 9.96314 19.5 12 19.5C14.0369 19.5 14.2923 19.4914 15.0922 19.4549C15.8905 19.4184 16.4357 19.2916 16.9128 19.1063C17.406 18.9146 17.8242 18.6582 18.2412 18.2412C18.6582 17.8242 18.9146 17.406 19.1063 16.9128C19.2916 16.4357 19.4184 15.8905 19.4549 15.0922C19.4914 14.2923 19.5 14.0369 19.5 12C19.5 9.96314 19.4914 9.70772 19.4549 8.90775C19.4184 8.10947 19.2916 7.56427 19.1063 7.08722C18.9146 6.59405 18.6582 6.17578 18.2412 5.75883C17.8242 5.34188 17.406 5.08542 16.9128 4.89375C16.4357 4.70836 15.8905 4.58156 15.0922 4.54514C14.2923 4.50863 14.0369 4.5 12 4.5ZM12 5.85136C14.0026 5.85136 14.2398 5.859 15.0307 5.89509C15.7619 5.92847 16.159 6.05062 16.4233 6.15333C16.7734 6.28936 17.0232 6.45192 17.2856 6.71438C17.5481 6.97678 17.7106 7.22667 17.8467 7.57673C17.9494 7.84102 18.0716 8.23809 18.1049 8.96934C18.141 9.76022 18.1486 9.99741 18.1486 12C18.1486 14.0026 18.141 14.2398 18.1049 15.0307C18.0716 15.7619 17.9494 16.159 17.8467 16.4233C17.7106 16.7734 17.5481 17.0232 17.2856 17.2856C17.0232 17.5481 16.7734 17.7106 16.4233 17.8467C16.159 17.9494 15.7619 18.0716 15.0307 18.1049C14.2399 18.141 14.0027 18.1486 12 18.1486C9.99727 18.1486 9.76013 18.141 8.96934 18.1049C8.23809 18.0716 7.84102 17.9494 7.57673 17.8467C7.22662 17.7106 6.97678 17.5481 6.71433 17.2856C6.45187 17.0232 6.28936 16.7734 6.15333 16.4233C6.05062 16.159 5.92842 15.7619 5.89505 15.0307C5.85895 14.2398 5.85136 14.0026 5.85136 12C5.85136 9.99741 5.85895 9.76022 5.89505 8.96934C5.92842 8.23809 6.05062 7.84102 6.15333 7.57673C6.28936 7.22667 6.45187 6.97678 6.71433 6.71438C6.97678 6.45192 7.22662 6.28936 7.57673 6.15333C7.84102 6.05062 8.23809 5.92847 8.96934 5.89509C9.76022 5.859 9.99741 5.85136 12 5.85136ZM12 8.14866C9.87295 8.14866 8.14866 9.87295 8.14866 12C8.14866 14.127 9.87295 15.8513 12 15.8513C14.127 15.8513 15.8513 14.127 15.8513 12C15.8513 9.87295 14.127 8.14866 12 8.14866ZM12 14.5C10.6193 14.5 9.50002 13.3807 9.50002 12C9.50002 10.6193 10.6193 9.50002 12 9.50002C13.3807 9.50002 14.5 10.6193 14.5 12C14.5 13.3807 13.3807 14.5 12 14.5ZM16.9035 7.9965C16.9035 8.49356 16.5006 8.89645 16.0035 8.89645C15.5065 8.89645 15.1035 8.49356 15.1035 7.9965C15.1035 7.49944 15.5065 7.0965 16.0035 7.0965C16.5006 7.0965 16.9035 7.49944 16.9035 7.9965Z"
              fill="black"/>
    </symbol>

    <symbol viewBox="0 0 24 24" id="telegram">
        <path d="M12 0C5.37097 0 0 5.37097 0 12C0 18.629 5.37097 24 12 24C18.629 24 24 18.629 24 12C24 5.37097 18.629 0 12 0ZM17.8935 8.22097L15.9242 17.5016C15.779 18.1597 15.3871 18.3194 14.8403 18.0097L11.8403 15.7984L10.3935 17.1919C10.2339 17.3516 10.0984 17.4871 9.78871 17.4871L10.0016 14.4339L15.5613 9.41129C15.8032 9.19839 15.5081 9.07742 15.1887 9.29032L8.31774 13.6161L5.35645 12.6919C4.7129 12.4887 4.69839 12.0484 5.49194 11.7387L17.0613 7.27742C17.5984 7.08387 18.0677 7.40806 17.8935 8.22097Z"
              fill="black"/>
    </symbol>
</svg>