<svg xmlns="http://www.w3.org/2000/svg">
    <symbol viewBox="0 0 76 28" id="nav-work1">
        <mask id="mask0_199_80" style="mask-type:alpha" maskUnits="userSpaceOnUse" x="0" y="0" width="76" height="28">
            <path d="M28 22V0H76V5.5L28 22Z" fill="currentColor"/>
            <path d="M0 0H28V28H0V0Z" fill="currentColor"/>
        </mask>
        <g mask="url(#mask0_199_80)">
            <path d="M7.14062 23.3906L11.6719 4.25H14.2031L14.7812 7.4375L9.95312 27H7.23438L7.14062 23.3906ZM4.8125 4.25L8.5625 23.3906L8.25 27H5.21875L0.171875 4.25H4.8125ZM18.7656 23.3125L22.4688 4.25H27.1094L22.0781 27H19.0469L18.7656 23.3125ZM15.625 4.25L20.1875 23.4688L20.0625 27H17.3438L12.4844 7.42188L13.1094 4.25H15.625ZM28.1562 18.7188V18.3906C28.1562 17.151 28.3333 16.0104 28.6875 14.9688C29.0417 13.9167 29.5573 13.0052 30.2344 12.2344C30.9115 11.4635 31.7448 10.8646 32.7344 10.4375C33.724 10 34.8594 9.78125 36.1406 9.78125C37.4219 9.78125 38.5625 10 39.5625 10.4375C40.5625 10.8646 41.401 11.4635 42.0781 12.2344C42.7656 13.0052 43.2865 13.9167 43.6406 14.9688C43.9948 16.0104 44.1719 17.151 44.1719 18.3906V18.7188C44.1719 19.9479 43.9948 21.0885 43.6406 22.1406C43.2865 23.1823 42.7656 24.0938 42.0781 24.875C41.401 25.6458 40.5677 26.2448 39.5781 26.6719C38.5885 27.099 37.4531 27.3125 36.1719 27.3125C34.8906 27.3125 33.75 27.099 32.75 26.6719C31.7604 26.2448 30.9219 25.6458 30.2344 24.875C29.5573 24.0938 29.0417 23.1823 28.6875 22.1406C28.3333 21.0885 28.1562 19.9479 28.1562 18.7188ZM32.6562 18.3906V18.7188C32.6562 19.4271 32.7188 20.0885 32.8438 20.7031C32.9688 21.3177 33.1667 21.8594 33.4375 22.3281C33.7188 22.7865 34.0833 23.1458 34.5312 23.4062C34.9792 23.6667 35.526 23.7969 36.1719 23.7969C36.7969 23.7969 37.3333 23.6667 37.7812 23.4062C38.2292 23.1458 38.5885 22.7865 38.8594 22.3281C39.1302 21.8594 39.3281 21.3177 39.4531 20.7031C39.5885 20.0885 39.6562 19.4271 39.6562 18.7188V18.3906C39.6562 17.7031 39.5885 17.0573 39.4531 16.4531C39.3281 15.8385 39.125 15.2969 38.8438 14.8281C38.5729 14.349 38.2135 13.974 37.7656 13.7031C37.3177 13.4323 36.776 13.2969 36.1406 13.2969C35.5052 13.2969 34.9635 13.4323 34.5156 13.7031C34.0781 13.974 33.7188 14.349 33.4375 14.8281C33.1667 15.2969 32.9688 15.8385 32.8438 16.4531C32.7188 17.0573 32.6562 17.7031 32.6562 18.3906ZM51.4375 13.7812V27H46.9375V10.0938H51.1719L51.4375 13.7812ZM56.5312 9.98438L56.4531 14.1562C56.2344 14.125 55.9688 14.099 55.6562 14.0781C55.3542 14.0469 55.0781 14.0312 54.8281 14.0312C54.1927 14.0312 53.6406 14.1146 53.1719 14.2812C52.7135 14.4375 52.3281 14.6719 52.0156 14.9844C51.7135 15.2969 51.4844 15.6771 51.3281 16.125C51.1823 16.5729 51.099 17.0833 51.0781 17.6562L50.1719 17.375C50.1719 16.2812 50.2812 15.276 50.5 14.3594C50.7188 13.4323 51.0365 12.625 51.4531 11.9375C51.8802 11.25 52.401 10.7188 53.0156 10.3438C53.6302 9.96875 54.3333 9.78125 55.125 9.78125C55.375 9.78125 55.6302 9.80208 55.8906 9.84375C56.151 9.875 56.3646 9.92188 56.5312 9.98438ZM63.1562 2.98438V27H58.6562V2.98438H63.1562ZM73.8125 10.0938L66.4688 18.4688L62.5312 22.4531L60.8906 19.2031L64.0156 15.2344L68.4062 10.0938H73.8125ZM69.1406 27L64.1406 19.1875L67.25 16.4688L74.3281 27H69.1406Z" fill="currentColor"/>
        </g>
    </symbol>
    <symbol viewBox="0 0 48 24" id="nav-work2">
        <mask id="mask0_199_77" style="mask-type:alpha" maskUnits="userSpaceOnUse" x="0" y="0" width="48" height="24">
            <path d="M47.9995 0.746295V23.5003H0.499756V17.1415L47.9995 0.746295Z" fill="currentColor"/>
        </mask>
        <g mask="url(#mask0_199_77)">
            <path d="M-20.8599 18.3909L-16.3286 -0.749756H-13.7974L-13.2192 2.43774L-18.0474 22.0002H-20.7661L-20.8599 18.3909ZM-23.188 -0.749756L-19.438 18.3909L-19.7505 22.0002H-22.7817L-27.8286 -0.749756H-23.188ZM-9.23486 18.3127L-5.53174 -0.749756H-0.891113L-5.92236 22.0002H-8.95361L-9.23486 18.3127ZM-12.3755 -0.749756L-7.81299 18.469L-7.93799 22.0002H-10.6567L-15.5161 2.42212L-14.8911 -0.749756H-12.3755ZM0.155762 13.719V13.3909C0.155762 12.1513 0.332845 11.0107 0.687012 9.96899C1.04118 8.91691 1.5568 8.00545 2.23389 7.23462C2.91097 6.46379 3.7443 5.86483 4.73389 5.43774C5.72347 5.00024 6.85889 4.78149 8.14014 4.78149C9.42139 4.78149 10.562 5.00024 11.562 5.43774C12.562 5.86483 13.4006 6.46379 14.0776 7.23462C14.7651 8.00545 15.286 8.91691 15.6401 9.96899C15.9943 11.0107 16.1714 12.1513 16.1714 13.3909V13.719C16.1714 14.9482 15.9943 16.0888 15.6401 17.1409C15.286 18.1825 14.7651 19.094 14.0776 19.8752C13.4006 20.6461 12.5672 21.245 11.5776 21.6721C10.5881 22.0992 9.45264 22.3127 8.17139 22.3127C6.89014 22.3127 5.74951 22.0992 4.74951 21.6721C3.75993 21.245 2.92139 20.6461 2.23389 19.8752C1.5568 19.094 1.04118 18.1825 0.687012 17.1409C0.332845 16.0888 0.155762 14.9482 0.155762 13.719ZM4.65576 13.3909V13.719C4.65576 14.4273 4.71826 15.0888 4.84326 15.7034C4.96826 16.318 5.16618 16.8596 5.43701 17.3284C5.71826 17.7867 6.08285 18.1461 6.53076 18.4065C6.97868 18.6669 7.52555 18.7971 8.17139 18.7971C8.79639 18.7971 9.33285 18.6669 9.78076 18.4065C10.2287 18.1461 10.5881 17.7867 10.8589 17.3284C11.1297 16.8596 11.3276 16.318 11.4526 15.7034C11.5881 15.0888 11.6558 14.4273 11.6558 13.719V13.3909C11.6558 12.7034 11.5881 12.0575 11.4526 11.4534C11.3276 10.8388 11.1245 10.2971 10.8433 9.82837C10.5724 9.3492 10.2131 8.9742 9.76514 8.70337C9.31722 8.43254 8.77555 8.29712 8.14014 8.29712C7.50472 8.29712 6.96305 8.43254 6.51514 8.70337C6.07764 8.9742 5.71826 9.3492 5.43701 9.82837C5.16618 10.2971 4.96826 10.8388 4.84326 11.4534C4.71826 12.0575 4.65576 12.7034 4.65576 13.3909ZM23.437 8.78149V22.0002H18.937V5.09399H23.1714L23.437 8.78149ZM28.5308 4.98462L28.4526 9.15649C28.2339 9.12524 27.9683 9.0992 27.6558 9.07837C27.3537 9.04712 27.0776 9.03149 26.8276 9.03149C26.1922 9.03149 25.6401 9.11483 25.1714 9.28149C24.7131 9.43774 24.3276 9.67212 24.0151 9.98462C23.7131 10.2971 23.4839 10.6773 23.3276 11.1252C23.1818 11.5732 23.0985 12.0836 23.0776 12.6565L22.1714 12.3752C22.1714 11.2815 22.2808 10.2763 22.4995 9.35962C22.7183 8.43254 23.036 7.62524 23.4526 6.93774C23.8797 6.25024 24.4006 5.71899 25.0151 5.34399C25.6297 4.96899 26.3328 4.78149 27.1245 4.78149C27.3745 4.78149 27.6297 4.80233 27.8901 4.84399C28.1506 4.87524 28.3641 4.92212 28.5308 4.98462ZM35.1558 -2.01538V22.0002H30.6558V-2.01538H35.1558ZM45.812 5.09399L38.4683 13.469L34.5308 17.4534L32.8901 14.2034L36.0151 10.2346L40.4058 5.09399H45.812ZM41.1401 22.0002L36.1401 14.1877L39.2495 11.469L46.3276 22.0002H41.1401Z" fill="currentColor"/>
        </g>
    </symbol>

    <symbol viewBox="0 0 24 24" id="facebook">
        <path fill-rule="evenodd" clip-rule="evenodd"
              d="M11.9542 23.9999L11.9649 24H11.9612L11.9542 23.9999ZM12.0388 24H12.0351L12.0458 23.9999L12.0388 24ZM11.9175 23.9997L11.9291 23.9998H11.9224L11.9175 23.9997ZM12.0776 23.9998H12.0709L12.0825 23.9997L12.0776 23.9998ZM11.8822 23.9994L11.8899 23.9995L11.8837 23.9994H11.8822ZM12.1163 23.9994L12.1101 23.9995L12.1178 23.9994H12.1163ZM12.155 23.999L12.1523 23.9991L12.1627 23.9989L12.155 23.999ZM11.8372 23.9989L11.8477 23.9991L11.845 23.999L11.8372 23.9989ZM12.1937 23.9985L12.1874 23.9985L12.2003 23.9984L12.1937 23.9985ZM11.7997 23.9984L11.8126 23.9985L11.8063 23.9985L11.7997 23.9984ZM12.2323 23.9978L12.2238 23.9979L12.2357 23.9977L12.2323 23.9978ZM11.7643 23.9977L11.7762 23.9979L11.7677 23.9978L11.7643 23.9977ZM11.7204 23.9968L11.7309 23.997L11.7291 23.997L11.7204 23.9968ZM12.2709 23.997L12.2691 23.997L12.2796 23.9968L12.2709 23.997ZM11.6819 23.9958L11.6963 23.9962L11.6905 23.9961L11.6819 23.9958ZM12.3095 23.9961L12.3037 23.9962L12.3181 23.9958L12.3095 23.9961ZM12.3481 23.995L12.3387 23.9953L12.3535 23.9949L12.3481 23.995ZM11.6465 23.9949L11.6613 23.9953L11.6519 23.995L11.6465 23.9949ZM11.6128 23.9939L11.6233 23.9942L11.6134 23.9939L11.6043 23.9936L11.6128 23.9939ZM12.3866 23.9939L12.3767 23.9942L12.3872 23.9939L12.3957 23.9936L12.3866 23.9939ZM12.4251 23.9926L12.4199 23.9928L12.436 23.9922L12.4251 23.9926ZM11.564 23.9922L11.5801 23.9928L11.5749 23.9926L11.564 23.9922ZM11.5289 23.9909L11.5458 23.9915L11.5364 23.9912L11.5289 23.9909ZM12.4636 23.9912L12.4542 23.9915L12.4711 23.9909L12.4636 23.9912ZM11.4944 23.9895L11.511 23.9902L11.498 23.9897L11.4944 23.9895ZM12.502 23.9897L12.489 23.9902L12.5056 23.9895L12.502 23.9897ZM11.4461 23.9874L11.4639 23.9882L11.4596 23.988L11.4461 23.9874ZM12.5404 23.988L12.5361 23.9882L12.5539 23.9874L12.5404 23.988ZM11.4115 23.9858L11.43 23.9866L11.4212 23.9863L11.4115 23.9858ZM12.5788 23.9863L12.57 23.9866L12.5885 23.9858L12.5788 23.9863ZM11.3774 23.9841L11.396 23.985L11.3829 23.9844L11.3774 23.9841ZM12.6171 23.9844L12.604 23.985L12.6226 23.9841L12.6171 23.9844ZM12.6555 23.9824L12.6385 23.9833L12.6535 23.9825L12.6713 23.9815L12.6555 23.9824ZM11.3465 23.9825L11.3615 23.9833L11.3445 23.9824L11.3287 23.9815L11.3465 23.9825ZM12.6937 23.9802L12.6862 23.9806L12.7052 23.9796L12.6937 23.9802ZM11.2948 23.9796L11.3138 23.9806L11.3063 23.9802L11.2948 23.9796ZM11.2609 23.9775L11.2799 23.9787L11.268 23.978L11.2609 23.9775ZM12.732 23.978L12.7201 23.9787L12.7391 23.9775L12.732 23.978ZM11.2286 23.9755L11.2457 23.9766L11.2298 23.9756L11.2138 23.9746L11.2286 23.9755ZM12.7702 23.9756L12.7543 23.9766L12.7714 23.9755L12.7862 23.9746L12.7702 23.9756ZM12.8084 23.9731L12.8026 23.9735L12.8208 23.9723L12.8084 23.9731ZM11.1792 23.9723L11.1974 23.9735L11.1916 23.9731L11.1792 23.9723ZM11.1454 23.97L11.1632 23.9712L11.1535 23.9706L11.1454 23.97ZM12.8465 23.9706L12.8368 23.9712L12.8546 23.97L12.8465 23.9706ZM11.1117 23.9676L11.1281 23.9687L11.1154 23.9678L11.1117 23.9676ZM12.8846 23.9678L12.8719 23.9687L12.8883 23.9676L12.8846 23.9678ZM11.0664 23.9641L11.0807 23.9652L11.0773 23.965L11.0664 23.9641ZM12.9227 23.965L12.9193 23.9652L12.9336 23.9641L12.9227 23.965ZM12.9608 23.962L12.9539 23.9625L12.9685 23.9614L12.9608 23.962ZM11.0315 23.9614L11.0461 23.9625L11.0392 23.962L11.0315 23.9614ZM10.9975 23.9586L11.0099 23.9596L11.0012 23.9589L10.9975 23.9586ZM12.9988 23.9589L12.9901 23.9596L13.0025 23.9586L12.9988 23.9589ZM10.9601 23.9555L10.9638 23.9558L10.9632 23.9557L10.9601 23.9555ZM13.0368 23.9557L13.0362 23.9558L13.0399 23.9555L13.0368 23.9557ZM13.0748 23.9524L13.0714 23.9527L13.0799 23.952L13.0748 23.9524ZM10.9201 23.952L10.9286 23.9527L10.9253 23.9524L10.9201 23.952ZM10.885 23.9488L10.8913 23.9494L10.8874 23.949L10.885 23.9488ZM13.1126 23.949L13.1087 23.9494L13.115 23.9488L13.1126 23.949ZM10.125 23.8541C4.3913 22.9529 0 17.9852 0 12C0 5.37703 5.37703 0 12 0C18.623 0 24 5.37703 24 12C24 17.9852 19.6087 22.9529 13.875 23.8541V15.4687H16.6711L17.2031 12H13.875V9.74901C13.875 8.80003 14.3399 7.875 15.8306 7.875H17.3438V4.92187C17.3438 4.92187 15.9705 4.6875 14.6576 4.6875C11.9165 4.6875 10.125 6.34875 10.125 9.35625V12H7.07812V15.4687H10.125V23.8541Z"
              fill="black"/>
    </symbol>

    <symbol viewBox="0 0 24 24" id="instagram">
        <path fill-rule="evenodd" clip-rule="evenodd"
              d="M12 0C18.623 0 24 5.37703 24 12C24 18.623 18.623 24 12 24C5.37703 24 0 18.623 0 12C0 5.37703 5.37703 0 12 0ZM12 4.5C9.96314 4.5 9.70772 4.50863 8.90775 4.54514C8.10947 4.58156 7.56427 4.70836 7.08717 4.89375C6.594 5.08542 6.17573 5.34188 5.75878 5.75883C5.34183 6.17578 5.08538 6.59405 4.8937 7.08722C4.70831 7.56427 4.58156 8.10947 4.54509 8.90775C4.50863 9.70772 4.5 9.96314 4.5 12C4.5 14.0369 4.50863 14.2923 4.54509 15.0922C4.58156 15.8905 4.70831 16.4357 4.8937 16.9128C5.08538 17.406 5.34183 17.8242 5.75878 18.2412C6.17573 18.6582 6.594 18.9146 7.08717 19.1063C7.56427 19.2916 8.10947 19.4184 8.90775 19.4549C9.70772 19.4914 9.96314 19.5 12 19.5C14.0369 19.5 14.2923 19.4914 15.0922 19.4549C15.8905 19.4184 16.4357 19.2916 16.9128 19.1063C17.406 18.9146 17.8242 18.6582 18.2412 18.2412C18.6582 17.8242 18.9146 17.406 19.1063 16.9128C19.2916 16.4357 19.4184 15.8905 19.4549 15.0922C19.4914 14.2923 19.5 14.0369 19.5 12C19.5 9.96314 19.4914 9.70772 19.4549 8.90775C19.4184 8.10947 19.2916 7.56427 19.1063 7.08722C18.9146 6.59405 18.6582 6.17578 18.2412 5.75883C17.8242 5.34188 17.406 5.08542 16.9128 4.89375C16.4357 4.70836 15.8905 4.58156 15.0922 4.54514C14.2923 4.50863 14.0369 4.5 12 4.5ZM12 5.85136C14.0026 5.85136 14.2398 5.859 15.0307 5.89509C15.7619 5.92847 16.159 6.05062 16.4233 6.15333C16.7734 6.28936 17.0232 6.45192 17.2856 6.71438C17.5481 6.97678 17.7106 7.22667 17.8467 7.57673C17.9494 7.84102 18.0716 8.23809 18.1049 8.96934C18.141 9.76022 18.1486 9.99741 18.1486 12C18.1486 14.0026 18.141 14.2398 18.1049 15.0307C18.0716 15.7619 17.9494 16.159 17.8467 16.4233C17.7106 16.7734 17.5481 17.0232 17.2856 17.2856C17.0232 17.5481 16.7734 17.7106 16.4233 17.8467C16.159 17.9494 15.7619 18.0716 15.0307 18.1049C14.2399 18.141 14.0027 18.1486 12 18.1486C9.99727 18.1486 9.76013 18.141 8.96934 18.1049C8.23809 18.0716 7.84102 17.9494 7.57673 17.8467C7.22662 17.7106 6.97678 17.5481 6.71433 17.2856C6.45187 17.0232 6.28936 16.7734 6.15333 16.4233C6.05062 16.159 5.92842 15.7619 5.89505 15.0307C5.85895 14.2398 5.85136 14.0026 5.85136 12C5.85136 9.99741 5.85895 9.76022 5.89505 8.96934C5.92842 8.23809 6.05062 7.84102 6.15333 7.57673C6.28936 7.22667 6.45187 6.97678 6.71433 6.71438C6.97678 6.45192 7.22662 6.28936 7.57673 6.15333C7.84102 6.05062 8.23809 5.92847 8.96934 5.89509C9.76022 5.859 9.99741 5.85136 12 5.85136ZM12 8.14866C9.87295 8.14866 8.14866 9.87295 8.14866 12C8.14866 14.127 9.87295 15.8513 12 15.8513C14.127 15.8513 15.8513 14.127 15.8513 12C15.8513 9.87295 14.127 8.14866 12 8.14866ZM12 14.5C10.6193 14.5 9.50002 13.3807 9.50002 12C9.50002 10.6193 10.6193 9.50002 12 9.50002C13.3807 9.50002 14.5 10.6193 14.5 12C14.5 13.3807 13.3807 14.5 12 14.5ZM16.9035 7.9965C16.9035 8.49356 16.5006 8.89645 16.0035 8.89645C15.5065 8.89645 15.1035 8.49356 15.1035 7.9965C15.1035 7.49944 15.5065 7.0965 16.0035 7.0965C16.5006 7.0965 16.9035 7.49944 16.9035 7.9965Z"
              fill="black"/>
    </symbol>

    <symbol viewBox="0 0 24 24" id="telegram">
        <path d="M12 0C5.37097 0 0 5.37097 0 12C0 18.629 5.37097 24 12 24C18.629 24 24 18.629 24 12C24 5.37097 18.629 0 12 0ZM17.8935 8.22097L15.9242 17.5016C15.779 18.1597 15.3871 18.3194 14.8403 18.0097L11.8403 15.7984L10.3935 17.1919C10.2339 17.3516 10.0984 17.4871 9.78871 17.4871L10.0016 14.4339L15.5613 9.41129C15.8032 9.19839 15.5081 9.07742 15.1887 9.29032L8.31774 13.6161L5.35645 12.6919C4.7129 12.4887 4.69839 12.0484 5.49194 11.7387L17.0613 7.27742C17.5984 7.08387 18.0677 7.40806 17.8935 8.22097Z"
              fill="black"/>
    </symbol>
</svg>