<svg width="76" height="28" viewBox="0 0 76 28" fill="none" xmlns="http://www.w3.org/2000/svg">
<mask id="mask0_199_80" style="mask-type:alpha" maskUnits="userSpaceOnUse" x="0" y="0" width="76" height="28">
<path d="M28 22V0H76V5.5L28 22Z" fill="#C4C4C4"/>
<path d="M0 0H28V28H0V0Z" fill="#C4C4C4"/>
</mask>
<g mask="url(#mask0_199_80)">
<path d="M7.14062 23.3906L11.6719 4.25H14.2031L14.7812 7.4375L9.95312 27H7.23438L7.14062 23.3906ZM4.8125 4.25L8.5625 23.3906L8.25 27H5.21875L0.171875 4.25H4.8125ZM18.7656 23.3125L22.4688 4.25H27.1094L22.0781 27H19.0469L18.7656 23.3125ZM15.625 4.25L20.1875 23.4688L20.0625 27H17.3438L12.4844 7.42188L13.1094 4.25H15.625ZM28.1562 18.7188V18.3906C28.1562 17.151 28.3333 16.0104 28.6875 14.9688C29.0417 13.9167 29.5573 13.0052 30.2344 12.2344C30.9115 11.4635 31.7448 10.8646 32.7344 10.4375C33.724 10 34.8594 9.78125 36.1406 9.78125C37.4219 9.78125 38.5625 10 39.5625 10.4375C40.5625 10.8646 41.401 11.4635 42.0781 12.2344C42.7656 13.0052 43.2865 13.9167 43.6406 14.9688C43.9948 16.0104 44.1719 17.151 44.1719 18.3906V18.7188C44.1719 19.9479 43.9948 21.0885 43.6406 22.1406C43.2865 23.1823 42.7656 24.0938 42.0781 24.875C41.401 25.6458 40.5677 26.2448 39.5781 26.6719C38.5885 27.099 37.4531 27.3125 36.1719 27.3125C34.8906 27.3125 33.75 27.099 32.75 26.6719C31.7604 26.2448 30.9219 25.6458 30.2344 24.875C29.5573 24.0938 29.0417 23.1823 28.6875 22.1406C28.3333 21.0885 28.1562 19.9479 28.1562 18.7188ZM32.6562 18.3906V18.7188C32.6562 19.4271 32.7188 20.0885 32.8438 20.7031C32.9688 21.3177 33.1667 21.8594 33.4375 22.3281C33.7188 22.7865 34.0833 23.1458 34.5312 23.4062C34.9792 23.6667 35.526 23.7969 36.1719 23.7969C36.7969 23.7969 37.3333 23.6667 37.7812 23.4062C38.2292 23.1458 38.5885 22.7865 38.8594 22.3281C39.1302 21.8594 39.3281 21.3177 39.4531 20.7031C39.5885 20.0885 39.6562 19.4271 39.6562 18.7188V18.3906C39.6562 17.7031 39.5885 17.0573 39.4531 16.4531C39.3281 15.8385 39.125 15.2969 38.8438 14.8281C38.5729 14.349 38.2135 13.974 37.7656 13.7031C37.3177 13.4323 36.776 13.2969 36.1406 13.2969C35.5052 13.2969 34.9635 13.4323 34.5156 13.7031C34.0781 13.974 33.7188 14.349 33.4375 14.8281C33.1667 15.2969 32.9688 15.8385 32.8438 16.4531C32.7188 17.0573 32.6562 17.7031 32.6562 18.3906ZM51.4375 13.7812V27H46.9375V10.0938H51.1719L51.4375 13.7812ZM56.5312 9.98438L56.4531 14.1562C56.2344 14.125 55.9688 14.099 55.6562 14.0781C55.3542 14.0469 55.0781 14.0312 54.8281 14.0312C54.1927 14.0312 53.6406 14.1146 53.1719 14.2812C52.7135 14.4375 52.3281 14.6719 52.0156 14.9844C51.7135 15.2969 51.4844 15.6771 51.3281 16.125C51.1823 16.5729 51.099 17.0833 51.0781 17.6562L50.1719 17.375C50.1719 16.2812 50.2812 15.276 50.5 14.3594C50.7188 13.4323 51.0365 12.625 51.4531 11.9375C51.8802 11.25 52.401 10.7188 53.0156 10.3438C53.6302 9.96875 54.3333 9.78125 55.125 9.78125C55.375 9.78125 55.6302 9.80208 55.8906 9.84375C56.151 9.875 56.3646 9.92188 56.5312 9.98438ZM63.1562 2.98438V27H58.6562V2.98438H63.1562ZM73.8125 10.0938L66.4688 18.4688L62.5312 22.4531L60.8906 19.2031L64.0156 15.2344L68.4062 10.0938H73.8125ZM69.1406 27L64.1406 19.1875L67.25 16.4688L74.3281 27H69.1406Z" fill="black"/>
</g>
</svg>
