<svg width="48" height="24" viewBox="0 0 48 24" fill="none" xmlns="http://www.w3.org/2000/svg">
<mask id="mask0_199_77" style="mask-type:alpha" maskUnits="userSpaceOnUse" x="0" y="0" width="48" height="24">
<path d="M47.9995 0.746295V23.5003H0.499756V17.1415L47.9995 0.746295Z" fill="#C4C4C4"/>
</mask>
<g mask="url(#mask0_199_77)">
<path d="M-20.8599 18.3909L-16.3286 -0.749756H-13.7974L-13.2192 2.43774L-18.0474 22.0002H-20.7661L-20.8599 18.3909ZM-23.188 -0.749756L-19.438 18.3909L-19.7505 22.0002H-22.7817L-27.8286 -0.749756H-23.188ZM-9.23486 18.3127L-5.53174 -0.749756H-0.891113L-5.92236 22.0002H-8.95361L-9.23486 18.3127ZM-12.3755 -0.749756L-7.81299 18.469L-7.93799 22.0002H-10.6567L-15.5161 2.42212L-14.8911 -0.749756H-12.3755ZM0.155762 13.719V13.3909C0.155762 12.1513 0.332845 11.0107 0.687012 9.96899C1.04118 8.91691 1.5568 8.00545 2.23389 7.23462C2.91097 6.46379 3.7443 5.86483 4.73389 5.43774C5.72347 5.00024 6.85889 4.78149 8.14014 4.78149C9.42139 4.78149 10.562 5.00024 11.562 5.43774C12.562 5.86483 13.4006 6.46379 14.0776 7.23462C14.7651 8.00545 15.286 8.91691 15.6401 9.96899C15.9943 11.0107 16.1714 12.1513 16.1714 13.3909V13.719C16.1714 14.9482 15.9943 16.0888 15.6401 17.1409C15.286 18.1825 14.7651 19.094 14.0776 19.8752C13.4006 20.6461 12.5672 21.245 11.5776 21.6721C10.5881 22.0992 9.45264 22.3127 8.17139 22.3127C6.89014 22.3127 5.74951 22.0992 4.74951 21.6721C3.75993 21.245 2.92139 20.6461 2.23389 19.8752C1.5568 19.094 1.04118 18.1825 0.687012 17.1409C0.332845 16.0888 0.155762 14.9482 0.155762 13.719ZM4.65576 13.3909V13.719C4.65576 14.4273 4.71826 15.0888 4.84326 15.7034C4.96826 16.318 5.16618 16.8596 5.43701 17.3284C5.71826 17.7867 6.08285 18.1461 6.53076 18.4065C6.97868 18.6669 7.52555 18.7971 8.17139 18.7971C8.79639 18.7971 9.33285 18.6669 9.78076 18.4065C10.2287 18.1461 10.5881 17.7867 10.8589 17.3284C11.1297 16.8596 11.3276 16.318 11.4526 15.7034C11.5881 15.0888 11.6558 14.4273 11.6558 13.719V13.3909C11.6558 12.7034 11.5881 12.0575 11.4526 11.4534C11.3276 10.8388 11.1245 10.2971 10.8433 9.82837C10.5724 9.3492 10.2131 8.9742 9.76514 8.70337C9.31722 8.43254 8.77555 8.29712 8.14014 8.29712C7.50472 8.29712 6.96305 8.43254 6.51514 8.70337C6.07764 8.9742 5.71826 9.3492 5.43701 9.82837C5.16618 10.2971 4.96826 10.8388 4.84326 11.4534C4.71826 12.0575 4.65576 12.7034 4.65576 13.3909ZM23.437 8.78149V22.0002H18.937V5.09399H23.1714L23.437 8.78149ZM28.5308 4.98462L28.4526 9.15649C28.2339 9.12524 27.9683 9.0992 27.6558 9.07837C27.3537 9.04712 27.0776 9.03149 26.8276 9.03149C26.1922 9.03149 25.6401 9.11483 25.1714 9.28149C24.7131 9.43774 24.3276 9.67212 24.0151 9.98462C23.7131 10.2971 23.4839 10.6773 23.3276 11.1252C23.1818 11.5732 23.0985 12.0836 23.0776 12.6565L22.1714 12.3752C22.1714 11.2815 22.2808 10.2763 22.4995 9.35962C22.7183 8.43254 23.036 7.62524 23.4526 6.93774C23.8797 6.25024 24.4006 5.71899 25.0151 5.34399C25.6297 4.96899 26.3328 4.78149 27.1245 4.78149C27.3745 4.78149 27.6297 4.80233 27.8901 4.84399C28.1506 4.87524 28.3641 4.92212 28.5308 4.98462ZM35.1558 -2.01538V22.0002H30.6558V-2.01538H35.1558ZM45.812 5.09399L38.4683 13.469L34.5308 17.4534L32.8901 14.2034L36.0151 10.2346L40.4058 5.09399H45.812ZM41.1401 22.0002L36.1401 14.1877L39.2495 11.469L46.3276 22.0002H41.1401Z" fill="black"/>
</g>
</svg>
